<svg id="Layer_1" data-name="Layer 1" xmlns="http://www.w3.org/2000/svg" width="40" height="40" viewBox="0 0 40 40">
  <g>
    <path d="M9,26.9429a2.0411,2.0411,0,0,0,.6035,1.455l1.4971,1.5A2.0612,2.0612,0,0,0,14.01,29.9L18.9473,25.01l.7968.7968,1.4141-1.4135-2.2891-2.29L20.1016,20.87l4.3828,4.3828a3.4718,3.4718,0,0,0,4.1806,5.0347l-2.664-2.666L28.1221,25.5l2.664,2.6641A3.462,3.462,0,0,0,31,27a3.5,3.5,0,0,0-3.5-3.5,3.4612,3.4612,0,0,0-1.5586.3818l-4.4258-4.4262,5.7119-5.7124H28.585L30,10.9141,28.585,9.5l-2.8282,1.4141v1.414l.0284.0288L17.4541,20.69l-2.2891-2.289-1.414,1.414.7851.7852L9.6025,25.4868A2.0483,2.0483,0,0,0,9,26.9429Zm6.9512-4.9283,1.5732,1.5728-5.01,4.896-1.5-1.58Z"/>
    <path d="M10.2139,11.8359A3.4639,3.4639,0,0,0,10,13a3.5,3.5,0,0,0,3.5,3.5,3.4622,3.4622,0,0,0,1.7471-.4844l2.5283,2.5274L19.19,17.1289l-2.5713-2.57A3.4612,3.4612,0,0,0,17,13a3.5,3.5,0,0,0-3.5-3.5,3.45,3.45,0,0,0-1.165.2144l2.664,2.6645L12.8779,14.5Z"/>
  </g>
</svg>
