<svg id="Layer_1" data-name="Layer 1" xmlns="http://www.w3.org/2000/svg" width="22.7918" height="22.7638" viewBox="0 0 22.7918 22.7638">
  <defs>
    <style>
      .cls-1 {
        fill: #fff;
      }
    </style>
  </defs>
  <g>
    <path class="cls-1" d="M21.915,4.006,18.7568.8478a3.0773,3.0773,0,0,0-4.2422,0L10.3769,4.9855a3.0049,3.0049,0,0,0,0,4.2431l.8653.8658L10.123,11.2135l-.8662-.8657a3.0773,3.0773,0,0,0-4.2422,0L.8769,14.4855a3.0049,3.0049,0,0,0,0,4.2431l3.1582,3.1592a3.0047,3.0047,0,0,0,4.2422-.001l4.1377-4.1377a3.0052,3.0052,0,0,0,0-4.2431l-.8779-.8784,1.1191-1.1192.8789.8794a3.0047,3.0047,0,0,0,4.2422-.001L21.915,8.2491A3.0052,3.0052,0,0,0,21.915,4.006ZM11.001,14.92a1.0028,1.0028,0,0,1,0,1.4151L6.8633,20.4723a1.03,1.03,0,0,1-1.4141,0L2.291,17.3141a1.0051,1.0051,0,0,1,0-1.4146l4.1377-4.1382a1.0057,1.0057,0,0,1,1.4141,0l.8662.8663L6.456,14.8805,7.87,16.2941l2.2529-2.2525Zm9.5-8.0849-4.1377,4.1372a1.03,1.03,0,0,1-1.4141,0l-.8789-.8789,1.8-1.8L14.456,6.8805l-1.8,1.7993-.8652-.8657a1.0051,1.0051,0,0,1,0-1.4146l4.1377-4.1382a1.0057,1.0057,0,0,1,1.4141,0L20.501,5.42A1.0028,1.0028,0,0,1,20.501,6.8351Z"/>
    <rect class="cls-1" x="18.1699" y="14.5875" width="3" height="2"/>
    <rect class="cls-1" x="15.1699" y="18.5875" width="2" height="3"/>
    <rect class="cls-1" x="1.1699" y="6.5875" width="3" height="2"/>
    <rect class="cls-1" x="5.1699" y="1.5875" width="2" height="3"/>
  </g>
</svg>
