<svg id="Layer_1" data-name="Layer 1" xmlns="http://www.w3.org/2000/svg" width="600" height="600" viewBox="0 0 600 600">
  <path d="M474.3584,326.678v2.0491c-.099.4346-.2133.8665-.2934,1.3045-.1017.5569-.1384,1.1276-.2679,1.6771a13.7942,13.7942,0,0,1-4.753,7.51c-.6093.513-1.231,1.0118-1.8326,1.5337a16.237,16.237,0,0,0-1.2459,1.1639,3.8155,3.8155,0,0,0-1.0246,3.7662c.2693,1.0453.4844,2.1066.6772,3.1692a16.4821,16.4821,0,0,1-.0059,6.1072,7.7965,7.7965,0,0,0-.2007,1.3475,6.4526,6.4526,0,0,1-.4883,2.3233c-.4846,1.2136-.9763,2.4253-1.5045,3.62a10.7638,10.7638,0,0,1-4.4641,5.0151c-.88.522-1.7195,1.1114-2.5682,1.6838a3.54,3.54,0,0,0-1.57,2.53c-.0736.5067-.1284,1.0161-.1918,1.5242a5.1351,5.1351,0,0,1-1.0371,2.4913c-.8578,1.1347-1.7126,2.2719-2.589,3.392a13.2773,13.2773,0,0,1-4.1989,3.6987,23.6473,23.6473,0,0,0-5.4033,4.1278,15.6063,15.6063,0,0,0-3.905,6.3307c-.0542.1616-.088.33-.14.4925-.0688.2169-.134.4361-.2209.6459a4.6967,4.6967,0,0,1-4.5685,3.2186c-2.5037.0232-5.0077.0006-7.5115.0138a5.5911,5.5911,0,0,0-4.9259,2.8632,13.056,13.056,0,0,0-.6883,1.3713,16.0991,16.0991,0,0,1-2.7967,4.2659,12.8265,12.8265,0,0,0-3.0286,5.4645,4.8717,4.8717,0,0,1-.4277,1.1073,2.2581,2.2581,0,0,1-2.7483,1.105c-.2752-.0693-.5438-.1709-.8221-.22a3.485,3.485,0,0,0-3.61,1.3914c-.31.4053-.5658.8526-.84,1.2848a33.7529,33.7529,0,0,1-4.4152,5.6318,12.6443,12.6443,0,0,1-5.6012,3.4544,19.7249,19.7249,0,0,1-3.0227.4729c-2.2279.2628-3.2589,1.0916-3.7865,3.2855-.3182,1.3231-.4889,2.682-.7165,4.0264a13.4493,13.4493,0,0,1-2.4042,6.47c-.53.6621-.91,1.4419-1.38,2.1544-1.001,1.52-1.98,3.0564-3.0327,4.54a12.8846,12.8846,0,0,1-6.0508,4.8244,27.1579,27.1579,0,0,1-8.8155,1.8166c-1.1946.0269-2.39.0634-3.5842.0465a5.088,5.088,0,0,0-4.5719,2.492c-.4038.6176-.7449,1.2764-1.1116,1.9181-.9309,1.6291-1.8247,3.2807-2.7981,4.884a10.4327,10.4327,0,0,1-6.9117,4.8829,35.1655,35.1655,0,0,1-6.2584.765c-1.6609.0677-3.2871-.2343-4.9311-.3263a14.1348,14.1348,0,0,1-4.3132-.9363c-.4775-.1835-.9462-.3925-1.43-.5553a3.598,3.598,0,0,0-3.77.9115,5.4728,5.4728,0,0,0-.6413.7951,9.6894,9.6894,0,0,1-5.0536,3.5956c-1.0335.3107-2.0537.6674-3.0735,1.0218a17.9169,17.9169,0,0,1-11.2358.1235,7.6892,7.6892,0,0,0-1.47-.4261,9.5807,9.5807,0,0,1-3.83-1.3381,7.7382,7.7382,0,0,0-5.2632-.9138,20.941,20.941,0,0,1-8.4719-.2992c-1.2742-.2913-2.5354-.6455-3.8174-.895a8.0132,8.0132,0,0,1-5.4766-3.7184,5.7637,5.7637,0,0,0-5.151-2.7906c-1.138-.0082-2.28.0561-3.4136-.0159a10.8387,10.8387,0,0,1-7.0856-2.9545c-1.968-1.8935-3.9095-3.8155-5.9071-5.6772-1.08-1.0068-2.23-1.9432-3.3907-2.8577-1.2508-.9854-2.5474-1.913-3.8305-2.8569a17.0057,17.0057,0,0,0-6.789-3.0569c-1.4486-.29-2.9181-.4745-4.3757-.7216-3.5854-.6078-7.1816-1.1439-10.7311-1.9666a7.1207,7.1207,0,0,1-3.99-2.43c-.2929-.3475-.5385-.7352-.8352-1.079a3.0375,3.0375,0,0,0-3.37-1.0342c-.49.1425-.967.332-1.4525.4921a28.489,28.489,0,0,1-13.2909,1.2684,20.2176,20.2176,0,0,1-12.8046-6.8394c-.593-.69-1.1356-1.4235-1.7231-2.1187a11.6912,11.6912,0,0,0-6.7262-4.0734c-1.1137-.2283-2.2219-.4839-3.337-.7044a25.3991,25.3991,0,0,1-8.87-3.383,17.16,17.16,0,0,1-7.9838-12.89c-.0968-.7314-.06-1.4807-.16-2.2114a6.9966,6.9966,0,0,0-4.755-6.1025c-.3738-.1357-.7579-.2428-1.1335-.3737a21.5793,21.5793,0,0,1-6.6853-3.6909,10.0032,10.0032,0,0,1-3.2916-5.0716,10.574,10.574,0,0,1-.3618-3.3785c.0666-1.82.146-3.639.2177-5.4586a8.6155,8.6155,0,0,0-2.4827-6.8346,13.91,13.91,0,0,1-1.9223-2.59,6.3527,6.3527,0,0,1-.9067-2.9069c-.1078-1.4751-.1931-2.9534-.3561-4.4228-.2695-2.43-.5353-4.8622-.912-7.2765-.3152-2.0205-.8043-4.0133-1.1849-6.0244a7.173,7.173,0,0,1,3.19-7.8452,14.1928,14.1928,0,0,0,1.5039-1.12,3.4744,3.4744,0,0,0,.4067-4.7757,11.1107,11.1107,0,0,0-4.93-3.8048,2.246,2.246,0,0,1-1.6748-2.191c.1935-.2717.414-.6.6537-.9128.2419-.3161.52-.6054.7525-.9276a2.8543,2.8543,0,0,0,.0118-3.4835c-.0982-.139-.2177-.2629-.3266-.3943a6.8689,6.8689,0,0,1-1.5749-4.4046c-.0516-2.6739-.1447-5.3476-.2591-8.02a24.2765,24.2765,0,0,1,.8085-7.434,5.8917,5.8917,0,0,0,.2188-1.5114,3.2753,3.2753,0,0,0-2.1534-3.3371,12.34,12.34,0,0,1-4.983-3.7785,22.695,22.695,0,0,1-4.8862-11.998,30.1839,30.1839,0,0,1,.2384-4.7626,17.3732,17.3732,0,0,1,2.0188-7.1666,32.4326,32.4326,0,0,1,3.3255-5.3537,3.7578,3.7578,0,0,0,.6588-3.6955c-.1764-.54-.3387-1.0861-.4833-1.6358-.3761-1.4287-.8368-2.8442-1.0844-4.2956-.3911-2.2922-.6384-4.6091-.9382-6.9166a3.9262,3.9262,0,0,1,.0042-.6821,12.73,12.73,0,0,1,2.7776-7.7276,14.0475,14.0475,0,0,0,.9377-1.2162,8.8685,8.8685,0,0,1,4.7965-3.6435,3.9262,3.9262,0,0,0,2.7869-3.7053c.1482-1.6429.2638-3.2914.3133-4.94a13.7048,13.7048,0,0,1,5.619-10.816c.5822-.4559,1.1705-.906,1.7768-1.3289a10.6938,10.6938,0,0,0,3.0423-3.4093,4.26,4.26,0,0,0,.63-2.6,11.5922,11.5922,0,0,1-.0812-1.19c.0189-.7621.4538-1.0609,1.2526-.8972.2227.0456.4456.0935.6643.1548a3.5977,3.5977,0,0,0,4.1762-1.4827c1.243-1.6237,2.6166-3.1482,3.9518-4.7.7792-.9057,1.5946-1.78,2.393-2.6694.19-.2117.3911-.4153.5643-.64a5.6914,5.6914,0,0,0,.8677-5.9394c-.4464-1.1062-.999-2.1694-1.4925-3.257a2.2388,2.2388,0,0,1-.1536-1.8164,1.02,1.02,0,0,1,1.02-.7465,3.7172,3.7172,0,0,1,3.3505,1.6791c.2484.3805.4492.7917.6866,1.18,1.2089,1.9759,2.5772,2.5007,4.7425,1.7562a23.5877,23.5877,0,0,1,7.7017-1.2955c1.3658-.0014,2.7316.0019,4.0972-.0108.511-.0048,1.0233-.0314,1.5323-.0782a6.3338,6.3338,0,0,0,5.5689-5.0186c.1558-.6639.2417-1.3438.38-2.0122a16.8635,16.8635,0,0,1,4.6005-8.7867,26.1238,26.1238,0,0,1,5.9619-4.52c.6493-.3527,1.307-.6952,1.9288-1.0923a12.0374,12.0374,0,0,0,5.6984-7.9511c.0562-.2783.1435-.55.2151-.8254a15.5969,15.5969,0,0,1,7.75-10.1313c4.17-2.3295,8.3028-4.7266,12.4544-7.09a22.1144,22.1144,0,0,0,6.3307-5.3894c.7143-.8859,1.4361-1.7671,2.1879-2.6209a10.5027,10.5027,0,0,1,5.9145-3.4778,23.4623,23.4623,0,0,1,6.4572-.1721c1.1916.0835,2.3817.2187,3.5745.2489a19.4236,19.4236,0,0,1,8.0456,2.007,8.9679,8.9679,0,0,0,1.2378.5713,2.892,2.892,0,0,0,2.6329-.1589,18.3983,18.3983,0,0,0,3.0963-2.3757c1.5953-1.7782,3.3184-3.4411,4.9343-5.2016a6.2064,6.2064,0,0,1,6.6732-1.83,19.5613,19.5613,0,0,1,4.4383,1.7271,16.1377,16.1377,0,0,0,8.02,1.96,46.0167,46.0167,0,0,1,6.4545.4965,58.1308,58.1308,0,0,1,5.8363,1.2171,5.5469,5.5469,0,0,0,5.0966-1.2057c.3067-.25.56-.5647.8476-.84a1.5038,1.5038,0,0,1,2.6034.5093,7.0678,7.0678,0,0,1,.2837,1.1532,6.3837,6.3837,0,0,0,4.5816,5.0284c.4362.1285.8676.2734,1.3055.3955a12.6688,12.6688,0,0,1,7.2962,5.2848,31.1745,31.1745,0,0,0,3.1637,3.7921c1.012,1.0723,2.1555,2.022,3.2567,3.0083A6.0494,6.0494,0,0,0,339.56,151.2a17.59,17.59,0,0,0,2.0376.1408c2.7883.0142,5.5775-.0341,8.3649.0177a43.9949,43.9949,0,0,1,4.5882.338,21.6831,21.6831,0,0,1,5.8737,1.7169,13.48,13.48,0,0,0,4.0873,1.1512,12.7178,12.7178,0,0,0,5.3807-.5891,22.1849,22.1849,0,0,1,10.1-1.0229c2.1423.2708,4.2681.6714,6.4013,1.014a12.3114,12.3114,0,0,1,7.3639,3.94,49.77,49.77,0,0,1,5.3379,6.6391,4.5261,4.5261,0,0,0,2.6693,2.0046,9.7356,9.7356,0,0,0,2.3446.3307c2.731.0394,5.4633-.0132,8.194.0306a23.31,23.31,0,0,1,3.3911.3109,7.5875,7.5875,0,0,1,3.5945,1.4714,34.5131,34.5131,0,0,1,5.9588,5.8325,12.0625,12.0625,0,0,1,2.5611,7.0908c.02.5112.0216,1.0246.0712,1.5331a4.1118,4.1118,0,0,0,3.6125,3.543c1.0771.083,2.1488.2477,3.2266.3091a5.085,5.085,0,0,1,3.7223,1.8224,9.9151,9.9151,0,0,1,1.4023,2.1238c1.4205,2.9761,2.7447,5.9983,4.1741,8.97a11.194,11.194,0,0,1,1.386,6.0683,1.6573,1.6573,0,0,0,.0144.3406,3.4243,3.4243,0,0,0,1.6333,2.8386c.294.171.56.3892.84.5849a6.6,6.6,0,0,1,2.9842,6.7745c-.4226,3.0412-.7757,6.0922-1.2051,9.1324a4.85,4.85,0,0,0,2.0645,4.9q.2055.1527.4036.3151a6.7222,6.7222,0,0,1,2.5827,5.1752c.0315,1.0231.0194,2.0489-.0129,3.0721a6.6975,6.6975,0,0,1-1.4566,4.0949,6.5194,6.5194,0,0,0-1.3207,5.3069,14.6963,14.6963,0,0,1,.2432,1.86,8.7445,8.7445,0,0,0,3.2862,6.505,9.4287,9.4287,0,0,1,3.2222,6.0186,58.9157,58.9157,0,0,1,.6938,9.5215c-.0151,1.3657-.0233,2.7324.0122,4.0974a6.422,6.422,0,0,0,2.909,5.6623c1.05.6774,2.0186,1.4788,3.0337,2.2108a14.071,14.071,0,0,1,4.47,5.0768,26.9046,26.9046,0,0,1,2.2026,5.899,32.1719,32.1719,0,0,1,.6471,7.8029,24.1727,24.1727,0,0,1-1.0476,7.0632,10.48,10.48,0,0,0,.71,8.4209,14.772,14.772,0,0,1,1.7525,6.5375A8.9374,8.9374,0,0,0,474.3584,326.678Zm-156.1434-25.77a.73.73,0,0,0-.6886.8048,6.6289,6.6289,0,0,0,.1437,1.5213c.71,3.1078,1.2139,6.25,1.6523,9.4057a8.2182,8.2182,0,0,0,2.3495,4.6435,2.3861,2.3861,0,0,0,.9463.69,3.3574,3.3574,0,0,1,1.6058,1.2123,9.069,9.069,0,0,1,2.4019,5.8831c.0473,2.5017.0511,5.0084-.054,7.5075a5.4594,5.4594,0,0,0,1.4933,4.3586,8.2617,8.2617,0,0,1,2.18,4.5466,27.25,27.25,0,0,1,.2887,2.7133c.12,1.8166.2077,3.6355.305,5.4536.0243.4544.0521.91.0484,1.3645a3.6875,3.6875,0,0,1-3.078,3.7434c-.449.0645-.8877.1983-1.3354.2764a1.497,1.497,0,0,0-1.253,1.2394,4.2238,4.2238,0,0,0-.09,1.52,19.5806,19.5806,0,0,0,.5439,2.3161,13.37,13.37,0,0,1,.7258,5.0362c-.1918,1.6929-.4629,3.3811-.7895,5.0538a28.2931,28.2931,0,0,1-3.7061,9.12,7.2627,7.2627,0,0,1-3.1277,3.0351,5.0079,5.0079,0,0,0-2.893,3.7679c-.3025,1.5047-.6044,3.014-1.0126,4.492-1.0346,3.747-2.3828,7.3324-5.1688,10.2179a28.5763,28.5763,0,0,1-4.7921,4.0807,44.3812,44.3812,0,0,1-6.4208,3.5259,4.9975,4.9975,0,0,0-3.1024,4.3351c-.18,1.5241-.43,3.0412-.691,4.554a11.8937,11.8937,0,0,1-2.8325,6.29q-3.54,3.8157-7.1276,7.5874a7.6112,7.6112,0,0,1-6.8582,2.2417c-.6753-.088-1.3383-.2671-2.0116-.3761-2.4124-.3906-4.8241-.7873-7.2419-1.1416a5.4034,5.4034,0,0,0-2.3352.03c-.5572,1.1282-.6208,1.3828-.2452,2.0982a5.2157,5.2157,0,0,0,3.5877,2.9062,37.3435,37.3435,0,0,0,4.0347.6686,10.965,10.965,0,0,1,4.8,1.6294,18.5713,18.5713,0,0,0,5.4816,2.2759,15.1618,15.1618,0,0,0,6.0785.3542,14.574,14.574,0,0,1,8.3749.8169c.2062.0918.4423.1158.65.2054a3.0948,3.0948,0,0,0,3.7354-.738,6.403,6.403,0,0,1,2.6006-1.5876,23.8317,23.8317,0,0,1,9.2514-1.1541,8.47,8.47,0,0,1,3.2706.8923c.3529.1832.7166.3453,1.0753.5174a2.0284,2.0284,0,0,0,1.8093-.07,2.722,2.722,0,0,0,1.2391-1.1274,9.9117,9.9117,0,0,1,3.239-3.2193c1.8108-1.18,3.6571-2.3089,5.4226-3.5527a11.4982,11.4982,0,0,1,6.2471-1.9819c1.59-.0812,3.1768-.2341,4.763-.3776a5.077,5.077,0,0,0,4.0388-2.5157,6.066,6.066,0,0,0,.6489-1.5666,18.8382,18.8382,0,0,1,4.3574-7.8273c.5763-.6294,1.1376-1.2725,1.7051-1.91a10.3305,10.3305,0,0,1,7.6575-3.5588,4.5711,4.5711,0,0,0,4.3543-4.0455,13.1514,13.1514,0,0,0,.0565-1.5337c.0053-2.447.056-4.8956-.014-7.3407a11.279,11.279,0,0,1,1.4512-5.8937,42.4234,42.4234,0,0,1,4.4093-6.4812c1.163-1.3991,2.2972-2.8223,3.47-4.2128a4.0359,4.0359,0,0,0-.0755-5.5692,7.7911,7.7911,0,0,1-1.9413-3.93c-.1734-.8883-.2252-1.8-.3488-2.6986a20.3785,20.3785,0,0,1,.29-5.7659,14.6423,14.6423,0,0,1,1.9372-5.0524c.3881-.6943.8395-1.3529,1.2555-2.0318a3.2658,3.2658,0,0,0-.6636-4.7022c-.7531-.6939-1.5323-1.3594-2.3009-2.0364a9.6315,9.6315,0,0,1-3.17-5.3375,29.8674,29.8674,0,0,1-.6167-4.7269,32.4061,32.4061,0,0,0-.7824-5.7364,7.17,7.17,0,0,0-4.3838-5.2942,6.0756,6.0756,0,0,1-1.4419-.8914,12.8,12.8,0,0,1-4.6995-7.1283c-.2854-1.2165-.5453-2.4437-.7211-3.68a2.5785,2.5785,0,0,0-1.9572-2.3123c-.2176-.0654-.4273-.1568-.6443-.2244-1.899-.5913-3.7889-1.2149-5.702-1.7569a8.9163,8.9163,0,0,1-3.2823-1.7511c-.5253-.433-1.0606-.8592-1.6245-1.2393a1.9792,1.9792,0,0,0-2.7809.1866c-.5119.45-.947.9878-1.4656,1.4287a1.5945,1.5945,0,0,1-.8971.3763c-.9264.0353-1.3263-.4914-1.2415-1.5692a6.4914,6.4914,0,0,0-2.69-6.1045q-2.7456-2.0234-5.5951-3.9045a2.6353,2.6353,0,0,0-3.7469.7414c-.2648.3688-.4674.782-.7308,1.1519-.6772.9507-1.5574.9373-2.1339-.0539a4.9421,4.9421,0,0,0-1.625-1.9334C319.44,301.7091,318.8377,301.3061,318.215,300.9084Zm115.906-2.1653c.0471-.7953.1012-1.59.1392-2.386s.102-1.5932.0815-2.388a4.4085,4.4085,0,0,0-4.3916-4.5046c-.3408-.0172-.6835-.0015-1.0239-.0228a9.3876,9.3876,0,0,1-7.0875-3.5677c-.5681-.711-1.1712-1.3938-1.7572-2.0905-2.38-2.83-4.7335-5.6826-7.1508-8.48a52.4228,52.4228,0,0,0-3.7617-3.9513,9.9267,9.9267,0,0,0-5.8982-2.808,16.6741,16.6741,0,0,1-7.3749-2.4567,2.9139,2.9139,0,0,0-3.6307.3908c-.57.462-1.031,1.0574-1.5587,1.5748a8.41,8.41,0,0,1-1.1441,1.0119,1.6834,1.6834,0,0,1-2.303-.3034,3.5976,3.5976,0,0,1-.644-1.1821,7.0967,7.0967,0,0,1,.0117-4.3664,5.7924,5.7924,0,0,0,.3125-1.6518c.001-1.0667-.5049-1.5137-1.6045-1.5281-1.024-.0133-2.0491.0295-3.0725.0021a18.4145,18.4145,0,0,1-7.1351-1.4725,24.696,24.696,0,0,0-3.5-1.3331,8.4151,8.4151,0,0,0-7.3581.9768,12.36,12.36,0,0,1-7.2415,2.1366c-1.3089.0017-2.6178.0017-3.9266.01a9.3131,9.3131,0,0,0-5.2982,1.6359,15.0505,15.0505,0,0,1-4.9683,2.19c-1.2675.307-2.5621.5189-3.8547.7019a12.8554,12.8554,0,0,0-6.8457,2.812,14.3485,14.3485,0,0,1-4.5743,2.5845c-.7475.2727-1.5068.5145-2.2466.8061a10.25,10.25,0,0,0-3.7968,2.5446c-.9685,1.0393-1.9275,2.0892-2.8527,3.1671a3.8,3.8,0,0,0-.2815,4.6031,3.6439,3.6439,0,0,0,4.108,1.709,9.3628,9.3628,0,0,0,1.1328-.367c.3744-.1346.75-.2714,1.1106-.4373a3.3767,3.3767,0,0,1,2.8156.0009,7.02,7.02,0,0,1,1.21.6192,5.1259,5.1259,0,0,0,3.5816.7983c.6213-.0738,1.2551-.0734,1.8667-.192a17.9831,17.9831,0,0,1,13.24,3.1788,11.8874,11.8874,0,0,0,5.9077,2.44,32.1018,32.1018,0,0,1,5.9919,1.2993,8.339,8.339,0,0,0,1.32.3409,5.5812,5.5812,0,0,1,3.754,2.4433,9.5246,9.5246,0,0,1,1.8649,4.8787c.0252.34.0288.6846.0859,1.02a2.7452,2.7452,0,0,0,2.3752,2.3371,12.2327,12.2327,0,0,0,1.3615.0742,26.66,26.66,0,0,1,6.58.8642,10.48,10.48,0,0,1,4.8861,2.6617,12.63,12.63,0,0,1,3.2725,6.0858,32.5334,32.5334,0,0,1,.7919,7.1089c-.0042.5121-.02,1.0268.0219,1.536a3.8358,3.8358,0,0,0,2.8053,3.4869c.3794.12.7695.2042,1.1512.3167a19.5029,19.5029,0,0,1,11.45,8.8817,10.6562,10.6562,0,0,1,1.5758,4.8233,20.0168,20.0168,0,0,1-.8285,7.7579,14.0485,14.0485,0,0,0-.4269,1.4741,3.2707,3.2707,0,0,0,1.5845,3.483c.8623.43,1.6851.94,2.5266,1.4123,3.8391,2.1547,6.18,5.3113,6.4449,9.7993.1036,1.7588.0976,3.5262.0814,5.2891a7.2949,7.2949,0,0,1-1.0152,3.4024c-.1624.3-.3594.5809-.523.88a3.3216,3.3216,0,0,0-.04,3.1038,5.2,5.2,0,0,0,2.5173,2.4171,3.8581,3.8581,0,0,0,4.2011-.0531c.9575-.6142,1.93-1.2076,2.8618-1.8592a7.8877,7.8877,0,0,0,3.26-4.6367,37.442,37.442,0,0,1,3.4581-8.3171,4.7453,4.7453,0,0,1,2.7347-2.4273c.2689-.089.52-.2294.7837-.3364a2.71,2.71,0,0,0,1.8444-2.4372,9.078,9.078,0,0,1,.1436-1.0128,5.7334,5.7334,0,0,1,1.6751-3.1033,25.5741,25.5741,0,0,0,4.3185-5.6758,8.0186,8.0186,0,0,0,.4512-7.8267,12.3472,12.3472,0,0,1-1.05-3.4069c-.3959-2.93-.6388-5.88-.9228-8.8246a5.0454,5.0454,0,0,1,.4539-2.6654,18.4256,18.4256,0,0,1,1.32-2.3755,14.12,14.12,0,0,0,2.0819-4.2658c.4516-1.7156.115-2.4626-1.5373-3.187a5.7993,5.7993,0,0,1-3.0859-2.8128,16.3608,16.3608,0,0,1-1.189-3.3675A30.7423,30.7423,0,0,1,434.121,298.7431ZM226.3588,285.2786a17.2706,17.2706,0,0,1-9.5735-2.6558,8.4907,8.4907,0,0,1-4.4514-6.8742c-.1344-1.471-.3323-2.9415-.6022-4.3935a6.417,6.417,0,0,0-3.8478-5.0724,38.98,38.98,0,0,1-5.319-3.0523,14.4213,14.4213,0,0,1-4.2535-4.1321,13.874,13.874,0,0,1-2.05-12.3351,18.9863,18.9863,0,0,0,.7437-5.5625,6.9058,6.9058,0,0,0-2.1973-5.19c-.7-.6675-1.4034-1.3325-2.13-1.97a10.4993,10.4993,0,0,1-3.6873-7.2683,36.1341,36.1341,0,0,1,.1344-8.6834,8.5648,8.5648,0,0,0,.0939-2.0385,2.6193,2.6193,0,0,0-2.0188-2.4656,4.6437,4.6437,0,0,0-1.8435-.1277,4.8319,4.8319,0,0,0-3.9251,3.1651,20.9674,20.9674,0,0,1-4.5529,6.5387c-.9529.9781-1.8991,1.9659-2.9,2.8928a10.3216,10.3216,0,0,0-3.206,6.4276,27.1318,27.1318,0,0,1-2.067,7.19,10.4558,10.4558,0,0,1-3.1353,4.1915,8.027,8.027,0,0,0-1.0072.9176,5.7649,5.7649,0,0,0-1.6444,3.6578c-.1131,2.387-.2646,4.7736-.3092,7.162a27.91,27.91,0,0,1-1.2577,7.8882c-.2552.8135-.5008,1.6338-.6806,2.4661a3.6343,3.6343,0,0,0,1.8345,4.0491,12.7091,12.7091,0,0,0,1.2379.571c1.463.6261,2.93,1.2426,4.3929,1.8694.418.1791.8223.39,1.24.569a1.317,1.317,0,0,1,.7732,1.2274,1.0127,1.0127,0,0,1-.73,1.0329c-.4142.1869-.81.4156-1.2257.598a3.1938,3.1938,0,0,0-1.7718,2.1723,9.9745,9.9745,0,0,0-.2464,1.1678c-.5566,3.1929-1.1329,6.3826-1.6477,9.5822a18.2579,18.2579,0,0,0-.174,2.8888,2.8587,2.8587,0,0,0,1.7366,2.7143q.919.4487,1.8572.8582a29.0277,29.0277,0,0,1,6.9837,4.5413c.6508.5483,1.2894,1.1115,1.9472,1.6513a7.4279,7.4279,0,0,1,2.7532,4.3838c.4315,2.174.943,4.3321,1.3734,6.5063a4.12,4.12,0,0,0,2.3213,2.9751,7.2471,7.2471,0,0,0,1.1184.4128c1.7846.574,3.5676,1.1534,5.3587,1.7065a13.64,13.64,0,0,1,4.7789,2.5637,36.6975,36.6975,0,0,1,5.8547,5.9478,14.6551,14.6551,0,0,0,1.7081,1.8988,4.1389,4.1389,0,0,0,3.9361,1.1221,31.6682,31.6682,0,0,1,7.1211-.6014,11.1483,11.1483,0,0,1,5.7022,1.4687,24.7279,24.7279,0,0,0,6.3432,2.4428,5.2915,5.2915,0,0,0,3.7837-.5781,9.0943,9.0943,0,0,0,.8552-.5613,7.95,7.95,0,0,1,4.8273-1.4168c1.3072.0472,2.6128.14,3.9191.211,1.0791.0584,2.1577.1423,3.2375.1634a4.2125,4.2125,0,0,0,3.1229-1.1221c1.2791-1.2092,2.6285-2.3452,3.8851-3.5766a6.1618,6.1618,0,0,1,3.5733-1.8266,19.0214,19.0214,0,0,1,2.2071-.1652q2.4745-.0374,4.95-.0056a4.521,4.521,0,0,0,3.6819-1.8229,5.7215,5.7215,0,0,0,.6693-.9863,5.751,5.751,0,0,1,4.4328-3.1036c.8409-.14,1.6761-.3139,2.5162-.4593a3.0355,3.0355,0,0,0,2.3274-1.8034c.1461-.3068.2553-.6316.3734-.9511a7.9888,7.9888,0,0,1,2.047-3.1033c.87-.8181,1.6977-1.6818,2.5351-2.5341a8.6335,8.6335,0,0,0,1.7919-2.68,3.4178,3.4178,0,0,0,.1856-2.3094c-.4053-1.571-.84-2.0641-2.4053-2.0871-1.3612-.02-2.724.0865-4.0864.1247-.8518.0238-1.7049.0526-2.556.0288-1.1345-.0318-2.267-.1389-3.4015-.1654-1.308-.03-2.6172-.0076-3.9258-.0089a36.7348,36.7348,0,0,1-8.1082-.9964c-4.9979-1.1331-9.8419-2.7681-14.7034-4.358a12.7161,12.7161,0,0,1-7.78-6.7113,18.8723,18.8723,0,0,0-1.0364-1.9589,4.7825,4.7825,0,0,0-4.619-2.3292C227.1511,285.21,226.7551,285.2461,226.3588,285.2786ZM242.0234,403.977l-.0028.0728c1.5345.0571,3.0687.1243,4.6036.168a10.6717,10.6717,0,0,0,3.5246-.5475,27.3629,27.3629,0,0,0,10.5876-6.0179c.9168-.8522,1.8914-1.6444,2.78-2.5239a7.9443,7.9443,0,0,1,6.1807-2.3571c1.4772.0568,2.9585.0115,4.4379.0055a6.67,6.67,0,0,0,6.1822-5.0152,27.5514,27.5514,0,0,0,.7346-4.0224,8.1186,8.1186,0,0,1,2.5021-5.0923,11.9565,11.9565,0,0,1,3.6645-2.4569c.6777-.2942,1.3612-.575,2.04-.8665A9.31,9.31,0,0,0,294.73,368.96c.2476-.8749.4577-1.7608.67-2.6454a15.749,15.749,0,0,1,4.7015-8.3352c1.73-1.559,1.8956-3.5407,1.2577-5.6448a9.2153,9.2153,0,0,0-.8318-1.867,6.4748,6.4748,0,0,1-.34-5.5971,24.6376,24.6376,0,0,1,3.4295-6.6429c1.3738-1.8635,1.3787-3.0646.1458-5.0015a6.602,6.602,0,0,1-1.1362-2.6445c-.19-1.4636-.3505-2.9374-.4023-4.4111-.0559-1.59-.0021-3.186.0581-4.7773a14.4545,14.4545,0,0,0-1.163-5.6429,1.9484,1.9484,0,0,0-1.6076-1.3725c-.8681-.0941-1.35.4619-1.7209,1.1505-.0269.05-.0561.099-.0831.1491a19.04,19.04,0,0,0-1.9349,4.9006c-.4852,2.1794-1.7221,3.1171-4.0054,3.1052a16.7987,16.7987,0,0,0-1.8758.028,3.6767,3.6767,0,0,0-3.396,3.462c-.0228.2261-.0188.4547-.032.6819-.2872,4.94-2.9055,8.3814-7.0466,10.7763a15.8976,15.8976,0,0,1-3.1718,1.2076,3.9264,3.9264,0,0,0-3.0552,3.4761,6.2708,6.2708,0,0,1-2.1829,3.9414c-.4183.3844-.91.6927-1.3073,1.0955a11.3927,11.3927,0,0,1-7.0056,3.1893c-2.37.29-4.7481.5673-7.131.6956a7.1019,7.1019,0,0,0-5.272,2.7423c-.4378.5222-.802,1.1059-1.2359,1.6318a8.0771,8.0771,0,0,1-5.94,3.2665c-.3967.021-.7908.0936-1.1858.1436a26.4468,26.4468,0,0,1-11.3169-.793c-.8674-.2695-1.7589-.4619-2.64-.6868a3.3051,3.3051,0,0,0-3.7793,1.2564c-.3742.5016-.7457,1.0071-1.1509,1.4831a8.2283,8.2283,0,0,1-7.0746,3.0678c-.9072-.0538-1.81-.1852-2.7136-.2931-2.3151-.2763-4.6262-.5922-6.9457-.8241a8.0067,8.0067,0,0,1-2.7688-.7844,15.9909,15.9909,0,0,1-5.1863-4.0954c-.8825-1.0421-1.7421-2.1036-2.6282-3.1426-1.0327-1.2108-1.6677-1.3563-3.1386-.8a26.95,26.95,0,0,1-2.5662.907c-2.0864.556-4.2028,1.0016-6.2822,1.5809a6.7,6.7,0,0,1-5.8537-.926,6.17,6.17,0,0,0-2.8435-1.0755,25.0868,25.0868,0,0,0-2.8889-.1663,3.1111,3.1111,0,0,0-3.1712,3.8622c.1708,1.0089.3626,2.0162.5977,3.0117a6.7825,6.7825,0,0,1-.3691,4.6655,4.3243,4.3243,0,0,0,.5938,4.7876,29.81,29.81,0,0,0,3.5639,4.1263c.9937.936,1.9551,1.9073,2.9091,2.8841a18.8223,18.8223,0,0,1,3.23,4.38c.5036.9558.9984,1.9223,1.5864,2.8258a10.3054,10.3054,0,0,0,1.61,1.9672,5.2488,5.2488,0,0,0,3.61,1.2913,9.7084,9.7084,0,0,1,6.9031,2.8806c1.0525,1.0389,2.1592,2.0229,3.2358,3.0377a3.43,3.43,0,0,0,4.3459.7429,2.3263,2.3263,0,0,1,.3063-.15,1.334,1.334,0,0,1,1.99,1.1314c.0608.3912.0461.7941.068,1.1915a3.7139,3.7139,0,0,0,.6822,1.9028,5.04,5.04,0,0,0,3.124,2.2072c1.4963.34,2.993.6788,4.4923,1.0055a27.6907,27.6907,0,0,1,7.6607,2.7907,2.797,2.797,0,0,0,.5995.3176,2.8339,2.8339,0,0,0,2.5973-.3615,2.098,2.098,0,0,0,.7421-1.8207c-.0129-1.5933-.0394-3.188.0145-4.7795a9.0893,9.0893,0,0,1,.3656-2.1691,2.684,2.684,0,0,1,1.26-1.5571,1.2616,1.2616,0,0,1,2.0333,1.0917c.0358,1.0231-.0046,2.0486.0239,3.0721a6.4977,6.4977,0,0,0,1.2634,3.6528,4.744,4.744,0,0,0,5.5643,1.8312,12.1643,12.1643,0,0,1,5.1972-.706C239.8624,403.9034,240.9433,403.9335,242.0234,403.977Zm51.9117-138.9756a16.8243,16.8243,0,0,0,.3,2.1782A5.233,5.233,0,0,0,297.2,270.3a2.0688,2.0688,0,0,0,2.8083-.8687c.3447-.52.5988-1.0989.9277-1.63.8076-1.3048,1.6095-2.6145,2.4614-3.89s1.8266-2.4747,2.63-3.78c.8413-1.3669,2.0776-2.3952,2.9668-3.7159.6981-1.0369,1.4544-2.04,2.2476-3.0067a7.17,7.17,0,0,1,5.4133-2.8513,4.7307,4.7307,0,0,0,4.6733-3.54,14.4322,14.4322,0,0,1,7.3889-8.3261,5.3523,5.3523,0,0,1,1.4433-.4683,28.3853,28.3853,0,0,1,5.602-.4793c1.0242.0047,2.0485-.01,3.0726,0a4.9169,4.9169,0,0,0,4.5921-2.4069,7.9476,7.9476,0,0,1,3.7665-3.0967c1.043-.449,2.11-.8438,3.1749-1.24a29.9953,29.9953,0,0,1,8.8673-1.5743,8.8857,8.8857,0,0,1,5.1054,1.08,3.9921,3.9921,0,0,0,4.498-.1824c.811-.5254,1.6444-1.017,2.4755-1.5106a15.7014,15.7014,0,0,1,5.3865-2.06,37.8317,37.8317,0,0,1,7.6432-.5712c.8529.0285,1.7071.0248,2.5594.0654a10.7248,10.7248,0,0,1,7.9693,3.6775,8.6506,8.6506,0,0,0,6.8877,3.1611c.5121-.0031,1.0244-.01,1.5363,0a2.38,2.38,0,0,0,1.9916-.787,3.5618,3.5618,0,0,1,3.0677-1.1532,19.59,19.59,0,0,1,7.1239,1.5487,36.3018,36.3018,0,0,0,8.1882,2.299,11.8808,11.8808,0,0,0,2.7177.0884,1.6286,1.6286,0,0,0,1.6389-1.8086,7.3052,7.3052,0,0,0-.7078-3.477c-.7351-1.4748-1.47-2.95-2.18-4.4368-.7849-1.6412-1.54-3.2967-2.3136-4.9434a5.2661,5.2661,0,0,1-.2648-3.8219,7.15,7.15,0,0,0,.2786-2.0053,2.0437,2.0437,0,0,0-2.0818-2.2149,6.1864,6.1864,0,0,1-2.1157-.5972,11.3257,11.3257,0,0,1-3.7114-2.6766c-.5376-.5872-1.07-1.1815-1.644-1.7326a10.166,10.166,0,0,1-2.488-3.831c-.2587-.6912-.47-1.4-.71-2.0987a4.8156,4.8156,0,0,0-4.9773-3.6c-1.4792-.0175-2.9592-.0236-4.4382,0a7.7936,7.7936,0,0,1-6.28-2.9,16.8664,16.8664,0,0,1-2.74-4.5c-.1773-.4188-.3326-.8471-.5174-1.2623a3.2559,3.2559,0,0,0-4.3-1.9962c-.7071.2133-1.4015.468-2.1054.6925a17.8811,17.8811,0,0,1-5.8687.951c-1.5883-.0382-3.17-.2907-4.759-.3631a11.18,11.18,0,0,1-6-2.1936c-.7918-.5553-1.546-1.1752-2.3807-1.6553a34.8026,34.8026,0,0,0-3.4882-1.7641,2.5256,2.5256,0,0,0-2.9518.7132c-.2.2012-.3706.4317-.5636.64a9.4906,9.4906,0,0,1-6.5276,3.2949c-1.0788.0675-2.1582.1249-3.2372.19-1.3629.0816-2.7249.1829-4.0887.2438a5.6054,5.6054,0,0,0-3.2769,1.2871c-.2681.2108-.5125.4517-.7795.6641a8.3011,8.3011,0,0,1-4.3112,1.8806,6.2632,6.2632,0,0,0-3.965,2.1332,6.8512,6.8512,0,0,1-3.9533,2.1768,17.5834,17.5834,0,0,1-4.042.4893,15.0549,15.0549,0,0,0-2.0368.1605c-.6772.0629-1.3535.19-2.0305.1918a5.4776,5.4776,0,0,0-4.2865,2.1129,7.2749,7.2749,0,0,0-1.5718,3.5457c-.1513.8394-.2713,1.6844-.4238,2.5235a13.9808,13.9808,0,0,1-3.7113,7.3539,6.6473,6.6473,0,0,1-5.03,2.1449c-.5121-.0047-1.0248-.0137-1.5362.0057a3.1192,3.1192,0,0,0-3.1638,3.4578,27.64,27.64,0,0,1-.7814,8.4514,7.6239,7.6239,0,0,1-4.9154,6.0471c-1.4415.5592-1.775,1.6289-1.1437,3.0269.0936.2071.21.4037.3082.6089a6.8847,6.8847,0,0,1,.6677,3.8126c-.07.6216-.1119,1.2468-.1547,1.8711-.1912,2.7906-.4771,5.54-1.9573,8.037a3.9989,3.9989,0,0,0-.1111,3.6345c.4284,1.0526.8789,2.1,1.387,3.1157a7.26,7.26,0,0,1,.4749,5.3054C294.2442,263.0034,294.1081,264.0777,293.9351,265.0014Zm-1.6044-111.13c-3.1352.1432-5.9285.1694-8.701.4223-3.6791.3356-7.3427.8435-11.0118,1.2868a3.4648,3.4648,0,0,0-3.1255,2.9171c-.0645.3337-.0539.6817-.1132,1.0169a4.7171,4.7171,0,0,1-3.3427,3.9376c-.3774.1248-.7623.2277-1.1466.33-3.2953.8794-6.5486,1.8915-9.7763,2.9955a12.0907,12.0907,0,0,0-6.9653,5.9279c-.7285,1.35-1.493,2.6818-2.2612,4.01a16.0647,16.0647,0,0,1-3.7316,4.405c-.8333.684-1.7246,1.3-2.6112,1.916a9.9829,9.9829,0,0,0-3.8943,5.2451,14.2106,14.2106,0,0,0-.6606,4.022,14.0061,14.0061,0,0,1-2.6541,8.1388c-.4388.5938-.8328,1.2215-1.2327,1.843a4.6717,4.6717,0,0,0-.4676,4.5526,11.327,11.327,0,0,1,1.0079,4.2919q.0189,4.5232-.0138,9.0465a4.6435,4.6435,0,0,1-2.0008,3.7774,4.5961,4.5961,0,0,1-1.0368.5823,6.3781,6.3781,0,0,0-3.8608,4.6724c-.1942.7718-.4354,1.5344-.5824,2.315a7.33,7.33,0,0,0,2.6213,7.6322c.1775.1424.3613.2774.5332.4263a11.2589,11.2589,0,0,1,4.0735,8.6664,11.3207,11.3207,0,0,0,.377,2.8572,9.6826,9.6826,0,0,0,4.1377,5.646,15.0372,15.0372,0,0,1,6.3057,8.43,16.574,16.574,0,0,0,.6192,1.7688,7.6653,7.6653,0,0,0,4.9966,4.5532,10.1135,10.1135,0,0,0,2.3545.3049,7.6384,7.6384,0,0,1,6.0651,3.309c.2684.3672.5094.7546.78,1.12a9.4739,9.4739,0,0,0,5.4074,3.6384c1.1.2839,2.1861.62,3.2888.8909a17.5007,17.5007,0,0,1,8.1607,4.3846,3.5418,3.5418,0,0,0,5.0675-.1285,6.3566,6.3566,0,0,0,1.4774-2.0628,2.5566,2.5566,0,0,0-.6921-3.3687,16.8373,16.8373,0,0,1-3.2092-3.9609c-.3514-.585-.7477-1.1441-1.08-1.7394a23.64,23.64,0,0,0-4.8843-6.0985,11.9832,11.9832,0,0,1-2.8215-4.0257,4.6638,4.6638,0,0,1,.14-4.2714c.2088-.4033.4686-.78.69-1.1774,1.8677-3.3581,2.2654-6.7341.247-10.2079a12.6875,12.6875,0,0,1-1.2412-2.9829c-.7144-2.5988-.814-5.1122.92-7.4858a15.3257,15.3257,0,0,0,2.5242-6.2818,6.1763,6.1763,0,0,0-.3662-3.665c-.1758-.4183-.4028-.8155-.6132-1.2188a5.087,5.087,0,0,1-.33-4.13c.4913-1.4541.9739-2.9135,1.536-4.3407a18.8372,18.8372,0,0,1,3.3444-5.5207c1.3467-1.542,2.7253-3.0565,4.1055-4.5688a2.9351,2.9351,0,0,0,.6266-3.8655c-.1155-.26-.2346-.5176-.3512-.7767a6.3683,6.3683,0,0,1-.471-3.998c.0576-.2783.1139-.5583.1461-.84a17.4564,17.4564,0,0,1,4.4593-10.1152,17.7831,17.7831,0,0,1,7.3356-5.094c1.3949-.4856,2.7715-1.0236,4.1582-1.533a4.4509,4.4509,0,0,0,3.01-3.7984c.0922-.6175.1066-1.2462.1694-1.8684a10.1011,10.1011,0,0,1,2.0767-5.1521c.4781-.6326.9558-1.2678,1.3933-1.9285a79.9823,79.9823,0,0,0,4.4445-7.8679,4.7093,4.7093,0,0,0-.6286-5.2329,3.5683,3.5683,0,0,0-2.5094-1.2927C299.0241,154.3159,295.506,154.0832,292.3307,153.8715Z"/>
</svg>
