<svg id="Layer_1" data-name="Layer 1" xmlns="http://www.w3.org/2000/svg" width="18.9818" height="18.9818" viewBox="0 0 18.9818 18.9818">
  <defs>
    <style>
      .cls-1 {
        fill: #fff;
      }

      .cls-2 {
        opacity: 0.25;
      }
    </style>
  </defs>
  <g>
    <path class="cls-1" d="M18.9818,9.4908A9.4909,9.4909,0,0,0,9.4909,0h0A9.4887,9.4887,0,0,0,3.5029,16.8512a6.1661,6.1661,0,0,1,3.902-4.278,4.186,4.186,0,1,1,4.1719,0,6.1659,6.1659,0,0,1,3.9021,4.278A9.47,9.47,0,0,0,18.9818,9.4908Z"/>
    <path class="cls-1" d="M11.5768,12.5732a4.1766,4.1766,0,1,0-4.1719,0,6.1661,6.1661,0,0,0-3.902,4.278,9.4485,9.4485,0,0,0,5.9879,2.1306h0a9.4488,9.4488,0,0,0,5.988-2.1306A6.1659,6.1659,0,0,0,11.5768,12.5732Z"/>
    <path class="cls-2" d="M11.5768,12.5732a4.1766,4.1766,0,1,0-4.1719,0,6.1661,6.1661,0,0,0-3.902,4.278,9.4485,9.4485,0,0,0,5.9879,2.1306h0a9.4488,9.4488,0,0,0,5.988-2.1306A6.1659,6.1659,0,0,0,11.5768,12.5732Z"/>
  </g>
</svg>
