<svg id="Layer_1" data-name="Layer 1" xmlns="http://www.w3.org/2000/svg" width="600" height="600" viewBox="0 0 600 600">
  <g>
    <path d="M269.5439,329.835a47.2522,47.2522,0,0,0,60.9111.0009L504.8369,175.7466a28.4941,28.4941,0,0,0-27.7086-21.8751H122.8717A28.494,28.494,0,0,0,95.17,175.716Z"/>
    <path d="M348.9939,351.4713l-.1613.1354a75.8945,75.8945,0,0,1-97.6648-.0009l-.32-.2745L94.3831,213.0413V417.64a28.4887,28.4887,0,0,0,28.4886,28.4886H477.1283A28.4887,28.4887,0,0,0,505.6169,417.64V213.0744Z"/>
  </g>
</svg>
