<svg id="Layer_1" data-name="Layer 1" xmlns="http://www.w3.org/2000/svg" width="22.7918" height="22.7638" viewBox="0 0 22.7918 22.7638">
  <defs>
    <style>
      .cls-1 {
        fill: #fff;
      }
    </style>
  </defs>
  <path class="cls-1" d="M13.5352,12.3878a3.0047,3.0047,0,0,0,4.2422-.001l4.1377-4.1377a3.0054,3.0054,0,0,0,0-4.2431L18.7569.8478a3.0773,3.0773,0,0,0-4.2422,0L10.377,4.9855a3.0046,3.0046,0,0,0,0,4.2431l.8652.8658-1.1191,1.1191-.8662-.8657a3.0773,3.0773,0,0,0-4.2422,0L.877,14.4855a3.0046,3.0046,0,0,0,0,4.2431l3.1582,3.1592a3.0047,3.0047,0,0,0,4.2422-.001l4.1377-4.1377a3.0054,3.0054,0,0,0,0-4.2431l-.878-.8784,1.1192-1.1192ZM11.001,14.92a1.0028,1.0028,0,0,1,0,1.4151L6.8633,20.4723a1.03,1.03,0,0,1-1.4141,0L2.291,17.3141a1.0051,1.0051,0,0,1,0-1.4146l4.1377-4.1382a1.0057,1.0057,0,0,1,1.4141,0l.8662.8663L6.4561,14.8805,7.87,16.2941l2.253-2.2525Zm.79-7.1059a1.0051,1.0051,0,0,1,0-1.4146l4.1377-4.1382a1.0057,1.0057,0,0,1,1.4141,0L20.501,5.42a1.0028,1.0028,0,0,1,0,1.4151l-4.1377,4.1372a1.03,1.03,0,0,1-1.4141,0l-.8789-.8789,1.8-1.8-1.414-1.4136-1.8,1.7993Z"/>
</svg>
