<svg id="Layer_1" data-name="Layer 1" xmlns="http://www.w3.org/2000/svg" width="22" height="22" viewBox="0 0 22 22">
  <defs>
    <style>
      .cls-1 {
        <!-- fill: #fff; -->
         fill="current"
      }
    </style>
  </defs>
  <g>
    <polygon class="cls-1" points="22 2 18 2 18 0 16 0 16 6 18 6 18 4 20 4 20 20 2 20 2 4 3 4 3 2 0 2 0 22 22 22 22 2"/>
    <polygon class="cls-1" points="6 0 4 0 4 6 6 6 6 4 15 4 15 2 6 2 6 0"/>
    <g>
      <rect class="cls-1" x="8" y="7.6682" width="2" height="4"/>
      <rect class="cls-1" x="12" y="7.6682" width="2" height="4"/>
      <rect class="cls-1" x="10" y="11.6682" width="2" height="2"/>
      <rect class="cls-1" x="8" y="11.6682" width="2" height="2"/>
      <rect class="cls-1" x="12" y="11.6682" width="2" height="2"/>
      <rect class="cls-1" x="8" y="13.6682" width="2" height="4"/>
      <rect class="cls-1" x="12" y="13.6682" width="2" height="4"/>
    </g>
  </g>
</svg>
