<svg id="Layer_1" data-name="Layer 1" xmlns="http://www.w3.org/2000/svg" width="21.414" height="21.4146" viewBox="0 0 21.414 21.4146">
  <defs>
    <style>
      .cls-1 {
        <!-- fill: #fff; -->
         fill="current"
      }
    </style>
  </defs>
  <g>
    <path class="cls-1" d="M.4472,10.7911A10.16,10.16,0,0,0,4.2715,18.729L3,20l1.414,1.4146L5.9883,19.84a10.1068,10.1068,0,0,0,9.3818-.0557l1.63,1.63L18.414,20l-1.3447-1.3442A10.173,10.173,0,1,0,.4472,10.7911ZM10.622,2.6153a8.1758,8.1758,0,1,1-8.1748,8.1758A8.1839,8.1839,0,0,1,10.622,2.6153Z"/>
    <rect class="cls-1" x="0.0857" y="1.2072" width="4.2426" height="2.0001" transform="translate(-0.9144 2.2064) rotate(-44.9878)"/>
    <rect class="cls-1" x="18.2069" y="0.086" width="2.0001" height="4.2426" transform="translate(4.0648 14.2279) rotate(-45)"/>
    <polygon class="cls-1" points="7.707 14.707 13.707 14.707 13.707 12.707 10.121 12.707 14.414 8.415 13.707 6.707 7.707 6.707 7.707 8.707 11.293 8.707 7 13 7.707 14.707"/>
  </g>
</svg>
