<svg id="Layer_1" data-name="Layer 1" xmlns="http://www.w3.org/2000/svg" width="22.6055" height="21.4141" viewBox="0 0 22.6055 21.4141">
  <defs>
    <style>
      .cls-1 {
        fill: #fff;
      }
    </style>
  </defs>
  <g>
    <path class="cls-1" d="M3.44,14.4824l1.4141-1.414a17.4665,17.4665,0,0,1-2.3213-2.35c2.2549-2.748,4.7685-4.3808,7.3623-4.82A4.995,4.995,0,0,0,6.19,10.707a5.0518,5.0518,0,0,0,.0937.9317L8.4786,9.4443A2.9968,2.9968,0,0,1,9.9268,7.9971l2.1943-2.1944h-.0005l1.7076-1.709a10.5745,10.5745,0,0,0-2.5254-.3271c-3.9248,0-7.6729,2.1943-10.84,6.3457L0,10.7187l.4629.6065A20.2349,20.2349,0,0,0,3.44,14.4824Z"/>
    <path class="cls-1" d="M17.66,5.8086l4.3945-4.3945L20.6407,0l-20,20,1.414,1.4141,4.7588-4.7579A10.7683,10.7683,0,0,0,11.3028,17.67c3.9238,0,7.6728-2.1933,10.84-6.3447l.4629-.6065-.4629-.6064A18.614,18.614,0,0,0,17.66,5.8086ZM14.19,10.707a3.0033,3.0033,0,0,1-3,3,2.94,2.94,0,0,1-1.1816-.2461l3.9355-3.9345A2.9365,2.9365,0,0,1,14.19,10.707ZM8.54,14.93a4.9489,4.9489,0,0,0,1.4214.623,8.98,8.98,0,0,1-1.6075-.4375Zm1.5591.65c-.0244-.0039-.0489-.01-.0738-.0137C10.05,15.5723,10.0752,15.5742,10.0992,15.58Zm2.0044.0351a5.0013,5.0013,0,0,0,4.0859-4.9082,4.9136,4.9136,0,0,0-.7783-2.6484l.7973-.7979a15.5146,15.5146,0,0,1,3.8648,3.458C17.6426,13.6807,14.9126,15.3457,12.1036,15.6152Z"/>
  </g>
</svg>
