<svg id="Layer_1" data-name="Layer 1" xmlns="http://www.w3.org/2000/svg" xmlns:xlink="http://www.w3.org/1999/xlink" width="3854.5924" height="871.9992" viewBox="0 0 3854.5924 871.9992">
  <defs>
    <style>
      .cls-1 {
        fill: url(#linear-gradient);
      }

      .cls-2 {
        fill: #d01600;
        opacity: 0.5;
      }

      .cls-3 {
        fill: #fff;
      }

      .cls-4 {
        fill: url(#linear-gradient-2);
      }

      .cls-5 {
        fill: url(#linear-gradient-3);
      }

      .cls-6 {
        fill: #ff1717;
      }
    </style>
    <linearGradient id="linear-gradient" x1="357.5" y1="-29.5794" x2="357.5" y2="773.4488" gradientUnits="userSpaceOnUse">
      <stop offset="0" stop-color="#3c3e4a"/>
      <stop offset="0.2794" stop-color="#393a46"/>
      <stop offset="0.5837" stop-color="#2e3038"/>
      <stop offset="0.8988" stop-color="#1d1e23"/>
      <stop offset="0.9209" stop-color="#1c1d21"/>
    </linearGradient>
    <linearGradient id="linear-gradient-2" x1="310.6104" y1="316.9402" x2="532.7755" y2="316.9402" gradientUnits="userSpaceOnUse">
      <stop offset="0" stop-color="#7adefe"/>
      <stop offset="0.1148" stop-color="#7ac2fe"/>
      <stop offset="0.3114" stop-color="#7b98fe"/>
      <stop offset="0.503" stop-color="#7b77fd"/>
      <stop offset="0.6856" stop-color="#7c5ffd"/>
      <stop offset="0.8555" stop-color="#7c51fd"/>
      <stop offset="1" stop-color="#7c4cfd"/>
    </linearGradient>
    <linearGradient id="linear-gradient-3" x1="211.998" y1="373.3707" x2="532.7755" y2="373.3707" gradientUnits="userSpaceOnUse">
      <stop offset="0" stop-color="#77defe"/>
      <stop offset="0.1148" stop-color="#78c2fe"/>
      <stop offset="0.3114" stop-color="#7998fe"/>
      <stop offset="0.503" stop-color="#7b77fd"/>
      <stop offset="0.6856" stop-color="#7b5ffd"/>
      <stop offset="0.8555" stop-color="#7c51fd"/>
      <stop offset="1" stop-color="#7c4cfd"/>
    </linearGradient>
  </defs>
  <g>
    <rect class="cls-1" y="0.4992" width="715" height="715" rx="357.4996"/>
    <path class="cls-2" d="M2349.6142,577.3761l-.1289.558c.062-.2067.1255-.41.187-.6171C2349.6528,577.3367,2349.6332,577.3564,2349.6142,577.3761Z"/>
    <g>
      <path class="cls-3" d="M958.608,358.9992c0-212,136-347,338-347,177,0,286,98,310,264h-176c-14-68-58-108-128-108-90,0-132,60-132,180v20c0,120,41,180,128,180,75,0,120-36,132-125h180c-13,197-141,281-318,281C1090.608,703.9992,958.608,569.9992,958.608,358.9992Z"/>
      <path class="cls-3" d="M1671.6022,21.9992h189v668h-189Z"/>
      <path class="cls-3" d="M1941.5958,26.9992h191v141h-191Zm2,191h188v472h-188Z"/>
      <path class="cls-3" d="M2212.589,217.9992h189v58c30-44,78-71,140-71,122,0,208,100,208,247v1c0,149-85,250-209,250-58,0-107-27-139-70v235h-189Zm339,242v-14c0-81-27-112-76-112-54,0-76,41-76,107v28c0,65,21,105,76,105C2523.589,573.9992,2551.589,539.9992,2551.589,459.9992Z"/>
      <path class="cls-3" d="M2812.5851,217.9992h189v58c30-44,78-71,140-71,122,0,208,100,208,247v1c0,149-85,250-209,250-58,0-107-27-139-70v235h-189Zm339,242v-14c0-81-27-112-76-112-54,0-76,41-76,107v28c0,65,21,105,76,105C3123.5851,573.9992,3151.5851,539.9992,3151.5851,459.9992Z"/>
      <path class="cls-3" d="M3371.5924,741.9992h77c36,0,53-3,66-52l-183-472h197l92,283,85-283h149l-177,518c-34,92-88,136-203,136h-103Z"/>
    </g>
    <g>
      <path class="cls-4" d="M319.0626,432.4667a39.6813,39.6813,0,0,0,3.9456.82c1.3274.2094,2.6641.3593,4.0012.4653q3.3387.2644,6.5994.2231a75.9336,75.9336,0,0,0,34.78-9.2046q3.7647-1.9789,7.4254-4.3261,2.3721-1.5175,4.651-3.1768c1.1662-.8481,2.3143-1.7187,3.43-2.6245,1.4919-1.2119,2.9375-2.4722,4.3071-3.8013q1.1181-1.0854,2.1719-2.226a48.6751,48.6751,0,0,0,3.9111-4.8072c.1182-.1665.2314-.3364.3494-.5029q2.1831-3.0856,4.3116-6.21,2.2219-3.2569,4.392-6.5517l96.1068-140.81q.9-1.2137,1.798-2.4292.8708-1.1842,1.7336-2.3745c.93-1.2764,1.8613-2.5522,2.7808-3.8359l.0019-.0025.0017.01.1708-.2539.0419-.0591q3.4571-4.8318,6.7871-9.748c.2893-.4268.582-.8516.87-1.2793q1.5453-2.2955,3.0542-4.6158.4164-.6386.83-1.2793,1.5736-2.4323,3.1123-4.8877L532.7755,199.9,502.661,223.5068q-15.6273,10.9584-31.55,21.4985c-21.1277,13.9873-42.8606,26.9707-64.635,39.8916-16.3172,9.6822-32.8824,18.9488-49.15,28.7119-12.7339,7.6426-23.9624,16.918-31.8806,29.9244-8.8345,14.5112-14.2376,29.9013-14.6563,46.9711a368.2264,368.2264,0,0,0,.7583,38.8965,28.7288,28.7288,0,0,0,5.5794,2.4947Q318.087,432.21,319.0626,432.4667Z"/>
      <path class="cls-5" d="M520.6266,217.9792q-1.5338,2.4592-3.1123,4.8877-.4142.64-.83,1.2793-1.5132,2.3175-3.0542,4.6158c-.2879.4279-.5806.8525-.87,1.2793q-3.3318,4.9156-6.7871,9.748l-.0419.0591-.1708.2539-.0017-.01-.0019.0024c-.92,1.2835-1.85,2.5594-2.7808,3.8357q-.8654,1.188-1.7336,2.3748-.8952,1.2169-1.798,2.4292l-96.1068,140.81q-2.1753,3.29-4.392,6.5518-2.1273,3.1252-4.3116,6.21c-.118.1665-.2312.3364-.3494.5029a48.6751,48.6751,0,0,1-3.9111,4.8072q-1.0525,1.1415-2.1719,2.226c-1.37,1.3291-2.8152,2.5894-4.3071,3.8013-1.1153.9058-2.2634,1.7766-3.43,2.6245q-2.2768,1.656-4.651,3.177-3.6617,2.3423-7.4254,4.326a75.9363,75.9363,0,0,1-34.78,9.2048q-3.2611.0389-6.5994-.2234c-1.3371-.1057-2.6738-.2559-4.0012-.4651a39.7672,39.7672,0,0,1-3.9456-.82q-.975-.2568-1.9355-.5713a28.7185,28.7185,0,0,1-5.58-2.4947,29.2407,29.2407,0,0,1-2.95-1.1821c-24.7437-13.06-34.649-41.8088-29.4656-66.2693,4.1086-19.3872,12.6318-37.2639,19.5219-55.6846,6.3179-16.8925,13.3687-33.51,19.9971-50.2878q9.4933-24.0315,18.7639-48.1514c1.4229-3.7226,2.9153-7.4223,4.4239-11.1167,5.1416-12.59,10.4856-25.1142,14.03-38.2321q.3808-1.4092.7014-2.81a53.2008,53.2008,0,0,0-1.2034-28.5856l-.0481-.1438a75.4071,75.4071,0,0,0-14.8112-25.4937,60.3744,60.3744,0,0,0-5.2141-5.3032l-.06-.0528a71.64,71.64,0,0,0-35.7322-16.44A77.7447,77.7447,0,0,0,262.89,81.2681c-1.88.6145-3.7193,1.3166-5.5271,2.0815-.166.07-.3357.1323-.501.2039-.0427.0171-.0849.0359-.1267.0532a46.0219,46.0219,0,0,0-4.4165,2.1225,76.3278,76.3278,0,0,0-24.0017,19.7374c-.0237.0268-.0486.0542-.072.081q-.579.6676-1.1358,1.34a54.9927,54.9927,0,0,0-8.9682,15.3641c-5.0354,11.3125-6.9253,23.6589-5.8526,36.882,2.2061,27.1975,14.7813,49.295,34.8587,67.378a.8548.8548,0,0,0,1.3059.0893,19.9266,19.9266,0,0,0-.0086-2.0127,148.1015,148.1015,0,0,1,.7935-36.0981c1.366-9.3438,2.9006-18.6607,6.1626-27.5362,4.2483-11.5585,7.8926-23.4882,18.8452-31.1294,6.2151-4.3361,12.8853-5.9555,20.0911-4.288,6.6682,1.5429,11.37,5.6015,12.62,12.7734a31.47,31.47,0,0,1-1.833,17.0461q-11.5793,29.6694-23.4241,59.2347c-10.9084,27.2553-22.0906,54.4028-32.8171,81.73-6.3714,16.2314-13.8074,32.0947-18.0283,49.1171-2.9976,12.09-4.6685,24.3494-3.2889,36.8047,1.7376,15.6841,5.4,30.8477,12.94,44.8994a102.2516,102.2516,0,0,0,14.3208,20.9187,111.9258,111.9258,0,0,0,32.3264,24.1912c19.9622,10.1987,40.8553,12.2691,62.5725,8.718,2.64-.4319,3.2061.11,3.68,2.4175,2.9888,14.5518,6.19,29.06,9.1431,43.6189q9.6547,47.5826,19.1189,95.204c2.594,13.0553,5.6829,26.0189,7.3721,39.2494.31,2.4289.1445,4.9956,1.3571,7.7019,1.4671-10.8524,2.7571-21.2587,4.3094-31.6255,1.45-9.6843,3.6662-19.2788,4.62-29.0037.6809-6.94,2.1309-13.74,3.0855-20.6076.9192-6.6138,2.5159-13.2393,3.3608-19.8726,1.1446-8.9805,3.0183-17.8379,4.6323-26.6938,1.96-10.7549,3.7269-21.554,5.6231-32.32,2.8989-16.46,5.3027-33.01,7.7834-49.5412a7.0687,7.0687,0,0,1,3.139-4.7937c4.6274-3.6446,9.33-7.232,13.6474-11.2264,13.8462-12.8095,22.5928-29.1035,30.8521-45.729,9.4607-19.0441,17.6042-38.6577,25.289-58.4592,3.0247-7.7939,5.6433-15.7507,8.2281-23.71,2.4067-7.4109,6.1123-19.6086,8.2592-27.0989,3.1206-10.8855,6.3728-21.7446,9.0784-32.7358.7937-3.2241,1.532-6.46,2.2483-9.7007L532.7755,199.9Z"/>
      <path class="cls-6" d="M402.48,405.1313c.2287-.2183.3681-.3486.368-.3486C402.1717,405.3149,402.1254,405.3808,402.48,405.1313Z"/>
    </g>
  </g>
</svg>
