<svg id="Layer_1" data-name="Layer 1" xmlns="http://www.w3.org/2000/svg" xmlns:xlink="http://www.w3.org/1999/xlink" width="3854.5924" height="871.9992" viewBox="0 0 3854.5924 871.9992">
  <defs>
    <style>
      .cls-1 {
        fill: url(#linear-gradient);
      }

      .cls-2 {
        fill: #fff;
      }

      .cls-3 {
        fill: url(#linear-gradient-2);
      }

      .cls-4 {
        fill: url(#linear-gradient-3);
      }
    </style>
    <linearGradient id="linear-gradient" x1="357.5" y1="-29.5794" x2="357.5" y2="747.425" gradientUnits="userSpaceOnUse">
      <stop offset="0" stop-color="#fc8ba1"/>
      <stop offset="1" stop-color="#fc3d78"/>
    </linearGradient>
    <linearGradient id="linear-gradient-2" x1="421.693" y1="134.5568" x2="421.693" y2="566.4009" gradientUnits="userSpaceOnUse">
      <stop offset="0" stop-color="#fff"/>
      <stop offset="0.2547" stop-color="#fcfcfc"/>
      <stop offset="0.4134" stop-color="#f4f4f4"/>
      <stop offset="0.5459" stop-color="#e5e5e5"/>
      <stop offset="0.6639" stop-color="#d1d1d1"/>
      <stop offset="0.7723" stop-color="#b6b6b6"/>
      <stop offset="0.8737" stop-color="#959595"/>
      <stop offset="0.9679" stop-color="#6f6f6f"/>
      <stop offset="1" stop-color="#606060"/>
    </linearGradient>
    <linearGradient id="linear-gradient-3" x1="372.3868" y1="56.9782" x2="372.3868" y2="823.555" gradientUnits="userSpaceOnUse">
      <stop offset="0" stop-color="#fff"/>
      <stop offset="0.2526" stop-color="#fcfcfc"/>
      <stop offset="0.4114" stop-color="#f4f4f4"/>
      <stop offset="0.5443" stop-color="#e5e5e5"/>
      <stop offset="0.6628" stop-color="#d0d0d0"/>
      <stop offset="0.7719" stop-color="#b6b6b6"/>
      <stop offset="0.874" stop-color="#959595"/>
      <stop offset="0.9689" stop-color="#6e6e6e"/>
      <stop offset="1" stop-color="#606060"/>
    </linearGradient>
  </defs>
  <g>
    <rect class="cls-1" y="0.4992" width="715" height="715" rx="357.4996"/>
    <g>
      <path class="cls-2" d="M958.608,358.9992c0-212,136-347,338-347,177,0,286,98,310,264h-176c-14-68-58-108-128-108-90,0-132,60-132,180v20c0,120,41,180,128,180,75,0,120-36,132-125h180c-13,197-141,281-318,281C1090.608,703.9992,958.608,569.9992,958.608,358.9992Z"/>
      <path class="cls-2" d="M1671.6022,21.9992h189v668h-189Z"/>
      <path class="cls-2" d="M1941.5958,26.9992h191v141h-191Zm2,191h188v472h-188Z"/>
      <path class="cls-2" d="M2212.589,217.9992h189v58c30-44,78-71,140-71,122,0,208,100,208,247v1c0,149-85,250-209,250-58,0-107-27-139-70v235h-189Zm339,242v-14c0-81-27-112-76-112-54,0-76,41-76,107v28c0,65,21,105,76,105C2523.589,573.9992,2551.589,539.9992,2551.589,459.9992Z"/>
      <path class="cls-2" d="M2812.5851,217.9992h189v58c30-44,78-71,140-71,122,0,208,100,208,247v1c0,149-85,250-209,250-58,0-107-27-139-70v235h-189Zm339,242v-14c0-81-27-112-76-112-54,0-76,41-76,107v28c0,65,21,105,76,105C3123.5851,573.9992,3151.5851,539.9992,3151.5851,459.9992Z"/>
      <path class="cls-2" d="M3371.5924,741.9992h77c36,0,53-3,66-52l-183-472h197l92,283,85-283h149l-177,518c-34,92-88,136-203,136h-103Z"/>
    </g>
    <g>
      <path class="cls-3" d="M319.0627,432.4667a39.679,39.679,0,0,0,3.9455.82c1.3274.21,2.6641.3594,4.0013.4653q3.3387.2645,6.5993.2232a75.9358,75.9358,0,0,0,34.78-9.2046q3.7649-1.9789,7.4254-4.3262,2.3723-1.5176,4.651-3.1767c1.1662-.8482,2.3143-1.7188,3.43-2.6245,1.492-1.212,2.9375-2.4722,4.3071-3.8013q1.1181-1.0854,2.1719-2.2261a48.6856,48.6856,0,0,0,3.9111-4.8071c.1183-.1665.2314-.3364.3494-.5029q2.1832-3.0858,4.3116-6.21,2.2219-3.2571,4.3921-6.5518l96.1067-140.81q.9-1.2137,1.798-2.4292.8709-1.1844,1.7337-2.3745c.93-1.2764,1.8613-2.5523,2.7807-3.836l.002-.0024.0017.01.1708-.2539.0418-.059q3.4571-4.8318,6.7871-9.7481c.2893-.4267.5821-.8516.87-1.2793q1.5455-2.2955,3.0542-4.6157.4164-.6387.83-1.2793,1.5736-2.4324,3.1123-4.8877l12.149-19.08-30.1145,23.6069q-15.6273,10.9586-31.55,21.4986c-21.1277,13.9873-42.8606,26.9707-64.635,39.8916-16.3171,9.6821-32.8823,18.9487-49.15,28.7119-12.7339,7.6426-23.9625,16.918-31.8807,29.9243-8.8344,14.5112-14.2375,29.9014-14.6562,46.9712a368.1728,368.1728,0,0,0,.7583,38.8965,28.73,28.73,0,0,0,5.5793,2.4946Q318.0871,432.21,319.0627,432.4667Z"/>
      <path class="cls-4" d="M520.6266,217.9792q-1.5336,2.4591-3.1123,4.8877-.4142.64-.83,1.2793-1.5132,2.3174-3.0542,4.6157c-.2878.428-.5806.8526-.87,1.2793q-3.3318,4.9156-6.7871,9.7481l-.0418.059-.1708.254-.0017-.01-.002.0025c-.9194,1.2834-1.85,2.5593-2.7807,3.8357q-.8653,1.188-1.7337,2.3747-.8952,1.2169-1.798,2.4292l-96.1067,140.81q-2.1754,3.29-4.3921,6.5517-2.1273,3.1253-4.3116,6.21c-.118.1665-.2311.3364-.3493.5029a48.6892,48.6892,0,0,1-3.9112,4.8071q-1.0524,1.1415-2.1719,2.2261c-1.37,1.3291-2.8151,2.5894-4.3071,3.8013-1.1153.9057-2.2634,1.7766-3.43,2.6245q-2.2768,1.656-4.651,3.177-3.6617,2.3423-7.4254,4.3259a75.9348,75.9348,0,0,1-34.78,9.2048q-3.261.0388-6.5993-.2233c-1.3372-.1058-2.6739-.2559-4.0013-.4651a39.7657,39.7657,0,0,1-3.9455-.8206q-.975-.2567-1.9356-.5713a28.7147,28.7147,0,0,1-5.58-2.4946,29.2642,29.2642,0,0,1-2.95-1.1821c-24.7437-13.06-34.6489-41.8089-29.4656-66.2693,4.1087-19.3872,12.6319-37.2639,19.522-55.6846,6.3179-16.8926,13.3686-33.51,19.9971-50.2878q9.4932-24.0315,18.7639-48.1514c1.4228-3.7227,2.9153-7.4224,4.4238-11.1167,5.1416-12.59,10.4856-25.1143,14.03-38.2322q.3808-1.4091.7015-2.81a53.2022,53.2022,0,0,0-1.2034-28.5857l-.0481-.1438a75.4055,75.4055,0,0,0-14.8113-25.4936,60.3509,60.3509,0,0,0-5.2141-5.3033l-.06-.0527a71.6376,71.6376,0,0,0-35.7322-16.44A77.7435,77.7435,0,0,0,262.89,81.268c-1.88.6145-3.7192,1.3167-5.5271,2.0816-.166.07-.3357.1323-.5009.2038-.0428.0171-.085.0359-.1268.0532a46.0348,46.0348,0,0,0-4.4165,2.1226,76.3286,76.3286,0,0,0-24.0017,19.7373c-.0236.0269-.0486.0542-.072.0811q-.579.6675-1.1357,1.34a54.9957,54.9957,0,0,0-8.9683,15.364c-5.0354,11.3125-6.9253,23.6589-5.8525,36.8821,2.206,27.1975,14.7812,49.2949,34.8586,67.3779a.8548.8548,0,0,0,1.3059.0894,19.9253,19.9253,0,0,0-.0085-2.0127,148.1022,148.1022,0,0,1,.7934-36.0982c1.366-9.3437,2.9007-18.6606,6.1626-27.5361,4.2483-11.5586,7.8926-23.4883,18.8452-31.1294,6.2151-4.3362,12.8853-5.9556,20.0911-4.2881,6.6682,1.543,11.37,5.6016,12.62,12.7735a31.4681,31.4681,0,0,1-1.833,17.0461q-11.5793,29.6692-23.424,59.2346c-10.9085,27.2554-22.0906,54.4029-32.8172,81.7295-6.3713,16.2315-13.8074,32.0947-18.0283,49.1172-2.9976,12.09-4.6685,24.3494-3.2888,36.8047,1.7375,15.6841,5.4,30.8476,12.94,44.8994a102.2436,102.2436,0,0,0,14.3208,20.9187,111.9244,111.9244,0,0,0,32.3264,24.1912c19.9621,10.1987,40.8552,12.269,62.5725,8.718,2.64-.4319,3.206.11,3.68,2.4175,2.9887,14.5517,6.1894,29.06,9.143,43.6189q9.6549,47.5824,19.1189,95.2039c2.594,13.0553,5.6829,26.019,7.3721,39.2494.31,2.429.1445,4.9956,1.3572,7.7019,1.467-10.8524,2.7571-21.2586,4.3093-31.6255,1.45-9.6843,3.6663-19.2788,4.62-29.0036.6809-6.94,2.1308-13.74,3.0854-20.6077.9192-6.6138,2.5159-13.2392,3.3609-19.8725,1.1445-8.9805,3.0183-17.8379,4.6323-26.6939,1.96-10.7549,3.7268-21.5539,5.623-32.32,2.899-16.46,5.3028-33.01,7.7835-49.5413a7.0691,7.0691,0,0,1,3.1389-4.7937c4.6274-3.6445,9.33-7.2319,13.6475-11.2263,13.8462-12.81,22.5927-29.1035,30.852-45.729,9.4607-19.0442,17.6043-38.6577,25.2891-58.4592,3.0246-7.794,5.6433-15.7508,8.228-23.71,2.4067-7.4109,6.1123-19.6087,8.2593-27.0989,3.1206-10.8855,6.3728-21.7446,9.0783-32.7358.7938-3.2242,1.532-6.46,2.2483-9.7007L532.7756,199.9Z"/>
    </g>
  </g>
</svg>
