<svg id="Layer_1" data-name="Layer 1" xmlns="http://www.w3.org/2000/svg" width="19.9492" height="21.9971" viewBox="0 0 19.9492 21.9971">
  <defs>
    <style>
      .cls-1 {
        fill: #fff;
      }
    </style>
  </defs>
  <g>
    <path class="cls-1" d="M9.9492,0l-4,3.1,4,3.1V3.9971a7.9948,7.9948,0,0,1,2,15.7368v2.0616a10,10,0,0,0-2-19.7984Z"/>
    <path class="cls-1" d="M3.8887,6.8l-1.418-1.418A9.9435,9.9435,0,0,0,.0029,10.9971H2.0185A7.9461,7.9461,0,0,1,3.8887,6.8Z"/>
    <path class="cls-1" d="M9.9492,19.9971a7.9531,7.9531,0,0,1-4.582-1.4516L3.94,19.9717a9.9393,9.9393,0,0,0,6.0088,2.0254Z"/>
    <path class="cls-1" d="M3.8838,17.1993a7.9654,7.9654,0,0,1-1.8653-4.2022H0a9.9471,9.9471,0,0,0,2.4707,5.6157Z"/>
  </g>
</svg>
