<svg id="Layer_1" data-name="Layer 1" xmlns="http://www.w3.org/2000/svg" width="20" height="22" viewBox="0 0 20 22">
  <defs>
    <style>
      .cls-1 {
        fill: #fff;
      }
    </style>
  </defs>
  <g>
    <path class="cls-1" d="M16,8V0H4.5859L0,4.5859V22H12V20H2V7H7V2h7V8ZM2.4141,5,5,2.4141V5Z"/>
    <rect class="cls-1" x="14" y="20" width="2" height="2"/>
    <path class="cls-1" d="M17,10H15a3.0033,3.0033,0,0,0-3,3h2a1.0009,1.0009,0,0,1,1-1h2a1.0009,1.0009,0,0,1,1,1v1a1.0009,1.0009,0,0,1-1,1,3.0033,3.0033,0,0,0-3,3v1h2V18a1.0009,1.0009,0,0,1,1-1,3.0033,3.0033,0,0,0,3-3V13A3.0033,3.0033,0,0,0,17,10Z"/>
  </g>
</svg>
