<svg id="Layer_1" data-name="Layer 1" xmlns="http://www.w3.org/2000/svg" width="17" height="18" viewBox="0 0 17 18">
  <defs>
    <style>
      .cls-1 {
        fill: #fff;
      }
    </style>
  </defs>
  <g>
    <path class="cls-1" d="M17,15a5.0059,5.0059,0,0,0-5-5H5a5.0059,5.0059,0,0,0-5,5v3H17Zm-2,1H2V15a3.0033,3.0033,0,0,1,3-3h7a3.0033,3.0033,0,0,1,3,3Z"/>
    <path class="cls-1" d="M4,4.5A4.5,4.5,0,1,0,8.5,0,4.5047,4.5047,0,0,0,4,4.5Zm7,0A2.5,2.5,0,1,1,8.5,2,2.5026,2.5026,0,0,1,11,4.5Z"/>
  </g>
</svg>
