<svg id="Layer_1" data-name="Layer 1" xmlns="http://www.w3.org/2000/svg" width="24" height="24" viewBox="0 0 24 24">
  <defs>
    <style>
      .cls-1 {
        fill: #fff;
      }
    </style>
  </defs>
  <g>
    <path class="cls-1" d="M5.0594,16.3807a1.2878,1.2878,0,0,0,.3808.9181l.9446.9464a1.3005,1.3005,0,0,0,1.8356.0016l3.1154-3.0858.5027.5028.8923-.8919-1.4444-1.4447.7777-.7785L14.83,15.3141a2.1906,2.1906,0,0,0,2.6378,3.1767l-1.6809-1.6822L17.1248,15.47l1.6809,1.681a2.1862,2.1862,0,0,0,.1349-.7345,2.2085,2.2085,0,0,0-2.2084-2.2084,2.1838,2.1838,0,0,0-.9834.2409l-2.7925-2.7928L16.56,8.0522h.8565L18.31,6.2671l-.8929-.8922-1.7845.8922v.8922l.018.0182-5.2567,5.2578L8.9493,10.991l-.8922.8922.4954.4954L5.44,15.462A1.2922,1.2922,0,0,0,5.0594,16.3807Zm4.3859-3.11.9927.9924L7.277,17.3527l-.9465-.997Z"/>
    <path class="cls-1" d="M5.8253,6.8487a2.1847,2.1847,0,0,0-.135.7345A2.2085,2.2085,0,0,0,7.8987,9.7916,2.1852,2.1852,0,0,0,9.0011,9.486l1.5953,1.5947.8922-.8923L9.8662,8.5667a2.1839,2.1839,0,0,0,.2409-.9835A2.2085,2.2085,0,0,0,7.8987,5.3749a2.1782,2.1782,0,0,0-.735.1352L8.8445,7.1914,7.5062,8.53Z"/>
  </g>
</svg>
