<svg id="Layer_1" data-name="Layer 1" xmlns="http://www.w3.org/2000/svg" width="24" height="24" viewBox="0 0 24 24">
  <defs>
    <style>
      .cls-1 {
        fill: #fff;
      }
    </style>
  </defs>
  <g>
    <path class="cls-1" d="M6.9523,19.5716H18.31V4.4284H6.9523V7.5832H5.69v1.262h1.262v1.2619H5.69V11.369h1.262v1.262H5.69v1.2619h1.262v1.2619H5.69v1.262h1.262Zm1.2619-5.6787H9.4761V12.631H8.2142V11.369H9.4761V10.1071H8.2142V8.8452H9.4761V7.5832H8.2142V5.69h8.8335V18.31H8.2142V16.4168H9.4761v-1.262H8.2142Z"/>
    <path class="cls-1" d="M15.7858,13.8929a1.2619,1.2619,0,0,0-1.2619-1.2619H12a1.2619,1.2619,0,0,0-1.2619,1.2619v1.2619h5.0477Z"/>
    <path class="cls-1" d="M13.2619,12a1.1645,1.1645,0,0,0,1.262-1.0316v-.5158a1.1645,1.1645,0,0,0-1.262-1.0316A1.1644,1.1644,0,0,0,12,10.4526v.5158A1.1644,1.1644,0,0,0,13.2619,12Z"/>
  </g>
</svg>
