<svg id="Layer_1" data-name="Layer 1" xmlns="http://www.w3.org/2000/svg" width="24" height="24" viewBox="0 0 24 24">
  <defs>
    <style>
      .cls-1 {
        fill: #fff;
      }
    </style>
  </defs>
  <g>
    <path class="cls-1" d="M18.31,17.0477a4.422,4.422,0,0,0-4.4168-4.4167H10.1071A4.422,4.422,0,0,0,5.69,17.0477V18.31H18.31Zm-11.3574,0a3.1586,3.1586,0,0,1,3.1548-3.1548h3.7858a3.1586,3.1586,0,0,1,3.1548,3.1548Z"/>
    <path class="cls-1" d="M15.1548,8.8452A3.1548,3.1548,0,1,0,12,12,3.1586,3.1586,0,0,0,15.1548,8.8452Zm-5.0477,0A1.8929,1.8929,0,1,1,12,10.7381,1.895,1.895,0,0,1,10.1071,8.8452Z"/>
  </g>
</svg>
