<svg id="Layer_1" data-name="Layer 1" xmlns="http://www.w3.org/2000/svg" width="23.999" height="24" viewBox="0 0 23.999 24">
  <defs>
    <style>
      .cls-1 {
        fill: #fff;
      }
    </style>
  </defs>
  <path class="cls-1" d="M23.999,3a3,3,0,1,0-4,2.8154V6H4V5.8159a3.0007,3.0007,0,1,0-2,0V6H0v9H2v9H4V15H19.999v9h2V15h2V6h-2V5.8159A2.9945,2.9945,0,0,0,23.999,3Zm-3-1a1,1,0,1,1-1,1A1.0009,1.0009,0,0,1,20.999,2ZM15.4131,8H19.584l-5,5H10.4131ZM7.5849,13H3.414l5-5h4.1709ZM3,2A1,1,0,1,1,2,3,1.001,1.001,0,0,1,3,2ZM5.5859,8,2,11.5859V8Zm11.8262,5L21.999,8.4131V13Z"/>
</svg>
