<svg id="Layer_1" data-name="Layer 1" xmlns="http://www.w3.org/2000/svg" width="24" height="24" viewBox="0 0 24 24">
  <defs>
    <style>
      .cls-1 {
        <!-- fill: #fff; -->
         fill="current"
      }
    </style>
  </defs>
  <g>
    <polygon class="cls-1" points="15.535 7.05 12 10.586 8.465 7.05 7.051 8.464 10.586 12 7.051 15.536 8.465 16.951 12 13.415 15.535 16.951 16.949 15.536 13.414 12 16.949 8.464 15.535 7.05"/>
    <path class="cls-1" d="M12,0A12,12,0,1,0,24,12,12.0137,12.0137,0,0,0,12,0Zm0,22A10,10,0,1,1,22,12,10.0108,10.0108,0,0,1,12,22Z"/>
  </g>
</svg>
