<svg id="Layer_1" data-name="Layer 1" xmlns="http://www.w3.org/2000/svg" xmlns:xlink="http://www.w3.org/1999/xlink" width="715" height="715" viewBox="0 0 715 715">
  <defs>
    <style>
      .cls-1 {
        fill: url(#linear-gradient);
      }

      .cls-2 {
        fill: url(#linear-gradient-2);
      }

      .cls-3 {
        fill: url(#linear-gradient-3);
      }
    </style>
    <linearGradient id="linear-gradient" x1="421.6907" y1="134.0595" x2="421.6907" y2="565.9036" gradientUnits="userSpaceOnUse">
      <stop offset="0" stop-color="#fff"/>
      <stop offset="0.2547" stop-color="#fcfcfc"/>
      <stop offset="0.4134" stop-color="#f4f4f4"/>
      <stop offset="0.5459" stop-color="#e5e5e5"/>
      <stop offset="0.6639" stop-color="#d1d1d1"/>
      <stop offset="0.7723" stop-color="#b6b6b6"/>
      <stop offset="0.8737" stop-color="#959595"/>
      <stop offset="0.9679" stop-color="#6f6f6f"/>
      <stop offset="1" stop-color="#606060"/>
    </linearGradient>
    <linearGradient id="linear-gradient-2" x1="372.3844" y1="56.4809" x2="372.3844" y2="823.0576" gradientUnits="userSpaceOnUse">
      <stop offset="0" stop-color="#fff"/>
      <stop offset="0.2526" stop-color="#fcfcfc"/>
      <stop offset="0.4114" stop-color="#f4f4f4"/>
      <stop offset="0.5443" stop-color="#e5e5e5"/>
      <stop offset="0.6628" stop-color="#d0d0d0"/>
      <stop offset="0.7719" stop-color="#b6b6b6"/>
      <stop offset="0.874" stop-color="#959595"/>
      <stop offset="0.9689" stop-color="#6e6e6e"/>
      <stop offset="1" stop-color="#606060"/>
    </linearGradient>
    <linearGradient id="linear-gradient-3" x1="80.2617" y1="403.2819" x2="80.8483" y2="403.2819" gradientUnits="userSpaceOnUse">
      <stop offset="0" stop-color="#fff"/>
      <stop offset="0.2459" stop-color="#fcfcfc"/>
      <stop offset="0.4047" stop-color="#f4f4f4"/>
      <stop offset="0.5389" stop-color="#e5e5e5"/>
      <stop offset="0.6594" stop-color="#d0d0d0"/>
      <stop offset="0.7708" stop-color="#b5b5b5"/>
      <stop offset="0.8753" stop-color="#939393"/>
      <stop offset="0.9728" stop-color="#6c6c6c"/>
      <stop offset="1" stop-color="#606060"/>
    </linearGradient>
  </defs>
  <g>
    <path class="cls-1" d="M319.06,431.9694a39.7094,39.7094,0,0,0,3.9456.82c1.3274.2094,2.664.3594,4.0012.4653q3.3387.2645,6.5994.2232a75.9361,75.9361,0,0,0,34.78-9.2046q3.7647-1.9791,7.4254-4.3262,2.3721-1.5176,4.651-3.1768c1.1662-.8481,2.3143-1.7187,3.43-2.6245,1.4919-1.2119,2.9375-2.4721,4.3071-3.8012q1.118-1.0856,2.1719-2.2261a48.6751,48.6751,0,0,0,3.9111-4.8072c.1182-.1665.2314-.3364.3494-.5029q2.1831-3.0856,4.3115-6.21,2.2221-3.2571,4.3921-6.5518l96.1068-140.81q.9-1.2135,1.798-2.4292.8708-1.1843,1.7336-2.3745c.93-1.2763,1.8613-2.5522,2.7808-3.8359l.0019-.0024.0017.01.1708-.2539.0419-.0591q3.457-4.8318,6.7871-9.748c.2893-.4268.582-.8516.87-1.2793q1.5455-2.2955,3.0542-4.6157.4164-.6387.83-1.2793,1.5737-2.4324,3.1123-4.8877l12.1489-19.08-30.1145,23.6069q-15.6273,10.9586-31.55,21.4985c-21.1276,13.9873-42.86,26.9707-64.635,39.8916-16.3171,9.6822-32.8823,18.9488-49.15,28.712-12.7339,7.6425-23.9624,16.9179-31.8806,29.9243-8.8345,14.5112-14.2376,29.9013-14.6563,46.9712a368.1982,368.1982,0,0,0,.7583,38.8964,28.7288,28.7288,0,0,0,5.5794,2.4947Q318.0847,431.713,319.06,431.9694Z"/>
    <path class="cls-2" d="M520.6243,217.4819q-1.5337,2.4591-3.1123,4.8877-.4141.64-.83,1.2793-1.5131,2.3174-3.0542,4.6157c-.2878.428-.58.8525-.87,1.2793q-3.3318,4.9156-6.7871,9.748l-.0419.0591-.1708.2539-.0017-.01-.0019.0024c-.92,1.2835-1.85,2.5594-2.7808,3.8357q-.8654,1.188-1.7336,2.3748-.8952,1.217-1.798,2.4292l-96.1068,140.81q-2.1753,3.2905-4.3921,6.5518-2.1271,3.1253-4.3115,6.21c-.118.1665-.2312.3364-.3494.503a48.6856,48.6856,0,0,1-3.9111,4.8071q-1.0525,1.1415-2.1719,2.2261c-1.37,1.3291-2.8152,2.5893-4.3071,3.8012-1.1153.9058-2.2634,1.7766-3.43,2.6245q-2.277,1.656-4.651,3.177-3.6617,2.3424-7.4254,4.326a75.9363,75.9363,0,0,1-34.78,9.2048q-3.2612.0388-6.5994-.2234c-1.3372-.1057-2.6738-.2558-4.0012-.4651a39.7672,39.7672,0,0,1-3.9456-.82q-.975-.2568-1.9355-.5713a28.7185,28.7185,0,0,1-5.58-2.4947,29.2189,29.2189,0,0,1-2.95-1.1821c-24.7436-13.0595-34.6489-41.8088-29.4655-66.2693,4.1086-19.3872,12.6318-37.2639,19.5219-55.6845,6.3179-16.8926,13.3687-33.51,19.9971-50.2879q9.4933-24.0315,18.7639-48.1513c1.4229-3.7227,2.9153-7.4224,4.4238-11.1167,5.1416-12.59,10.4856-25.1143,14.03-38.2322q.3809-1.4092.7014-2.81a53.2012,53.2012,0,0,0-1.2034-28.5857l-.0481-.1438a75.4055,75.4055,0,0,0-14.8113-25.4937,60.3446,60.3446,0,0,0-5.2141-5.3032l-.06-.0527a71.639,71.639,0,0,0-35.7322-16.44,77.7447,77.7447,0,0,0-36.6118,2.6209c-1.88.6145-3.7193,1.3166-5.5271,2.0815-.166.07-.3357.1323-.501.2039-.0427.0171-.085.0359-.1267.0532a46.0234,46.0234,0,0,0-4.4165,2.1226,76.325,76.325,0,0,0-24.0017,19.7373c-.0237.0268-.0486.0542-.072.081q-.579.6676-1.1358,1.34a54.9957,54.9957,0,0,0-8.9683,15.364c-5.0354,11.3125-6.9252,23.6589-5.8525,36.882,2.2061,27.1976,14.7813,49.295,34.8587,67.378a.8547.8547,0,0,0,1.3059.0893,19.9266,19.9266,0,0,0-.0086-2.0127,148.0965,148.0965,0,0,1,.7935-36.0981c1.3659-9.3438,2.9006-18.6607,6.1626-27.5361,4.2483-11.5586,7.8925-23.4883,18.8452-31.1294,6.2151-4.3362,12.8852-5.9556,20.091-4.2881,6.6683,1.5429,11.37,5.6015,12.62,12.7734a31.47,31.47,0,0,1-1.833,17.0462q-11.5793,29.6692-23.4241,59.2346c-10.9085,27.2554-22.0906,54.4028-32.8171,81.7295-6.3714,16.2314-13.8074,32.0947-18.0284,49.1172-2.9975,12.09-4.6684,24.3493-3.2888,36.8046,1.7376,15.6841,5.4,30.8477,12.94,44.8995a102.2543,102.2543,0,0,0,14.3208,20.9187A111.9255,111.9255,0,0,0,287.15,471.7543c19.9622,10.1988,40.8552,12.2691,62.5725,8.718,2.64-.4318,3.2061.11,3.68,2.4175,2.9888,14.5518,6.19,29.06,9.1431,43.6189q9.6547,47.5826,19.1189,95.204c2.594,13.0553,5.6828,26.0189,7.3721,39.2494.31,2.4289.1445,4.9956,1.3571,7.7019,1.4671-10.8524,2.7571-21.2587,4.3094-31.6255,1.45-9.6843,3.6662-19.2788,4.62-29.0037.6809-6.94,2.1309-13.74,3.0855-20.6076.9192-6.6138,2.5158-13.2393,3.3608-19.8726,1.1445-8.9805,3.0183-17.8379,4.6323-26.6938,1.9605-10.7549,3.7268-21.554,5.6231-32.32,2.8989-16.46,5.3027-33.01,7.7834-49.5412a7.0691,7.0691,0,0,1,3.1389-4.7937c4.6275-3.6445,9.33-7.2319,13.6475-11.2263,13.8462-12.81,22.5928-29.1036,30.8521-45.729,9.4606-19.0442,17.6042-38.6578,25.289-58.4593,3.0247-7.7939,5.6433-15.7507,8.228-23.71,2.4068-7.4109,6.1123-19.6086,8.2593-27.0988,3.1206-10.8855,6.3728-21.7447,9.0784-32.7359.7937-3.2241,1.532-6.46,2.2483-9.7007l8.2236-46.1435Z"/>
  </g>
  <path class="cls-3" d="M80.48,403.3864c.2288-.2183.3681-.3487.3681-.3487C80.1718,403.57,80.1254,403.6359,80.48,403.3864Z"/>
</svg>
