<svg id="Layer_1" data-name="Layer 1" xmlns="http://www.w3.org/2000/svg" xmlns:xlink="http://www.w3.org/1999/xlink" width="715" height="715" viewBox="0 0 715 715">
  <defs>
    <style>
      .cls-1 {
        fill: url(#linear-gradient);
      }

      .cls-2 {
        fill: url(#linear-gradient-2);
      }

      .cls-3 {
        fill: #ff1717;
      }
    </style>
    <linearGradient id="linear-gradient" x1="310.6104" y1="316.441" x2="532.7755" y2="316.441" gradientUnits="userSpaceOnUse">
      <stop offset="0" stop-color="#fc8ba1"/>
      <stop offset="1" stop-color="#fc3d78"/>
    </linearGradient>
    <linearGradient id="linear-gradient-2" x1="211.998" y1="372.8714" x2="532.7755" y2="372.8714" xlink:href="#linear-gradient"/>
  </defs>
  <g>
    <path class="cls-1" d="M319.0626,431.9675a39.6525,39.6525,0,0,0,3.9456.82c1.3274.2095,2.6641.3594,4.0012.4654q3.3387.2643,6.5994.2231a75.9349,75.9349,0,0,0,34.78-9.2046q3.7647-1.9789,7.4254-4.3262,2.3721-1.5175,4.651-3.1767c1.1662-.8482,2.3143-1.7188,3.43-2.6245,1.4919-1.2119,2.9375-2.4722,4.3071-3.8013q1.1181-1.0854,2.1719-2.2261a48.6623,48.6623,0,0,0,3.9111-4.8071c.1182-.1665.2314-.3364.3494-.5029q2.1831-3.0858,4.3116-6.21,2.2219-3.2571,4.392-6.5517l96.1068-140.81q.9-1.2137,1.798-2.4292.8708-1.1843,1.7336-2.3745c.93-1.2764,1.8613-2.5523,2.7808-3.8359l.0019-.0025.0017.01.1708-.2539.0419-.0591q3.4571-4.8318,6.7871-9.7481c.2893-.4267.582-.8515.87-1.2793q1.5453-2.2953,3.0542-4.6157.4164-.6387.83-1.2793,1.5736-2.4324,3.1123-4.8877l12.1489-19.08-30.1145,23.607q-15.6273,10.9584-31.55,21.4985c-21.1277,13.9873-42.8606,26.9707-64.635,39.8916-16.3172,9.6821-32.8824,18.9487-49.15,28.7119-12.7339,7.6426-23.9624,16.918-31.8806,29.9243-8.8345,14.5113-14.2376,29.9014-14.6563,46.9712a368.2264,368.2264,0,0,0,.7583,38.8965,28.7284,28.7284,0,0,0,5.5794,2.4946Q318.087,431.7112,319.0626,431.9675Z"/>
    <path class="cls-2" d="M520.6266,217.48q-1.5338,2.4591-3.1123,4.8877-.4142.64-.83,1.2793-1.5132,2.3174-3.0542,4.6157c-.2879.428-.5806.8526-.87,1.2793q-3.3318,4.9156-6.7871,9.7481l-.0419.0591-.1708.2539-.0017-.01-.0019.0024c-.92,1.2834-1.85,2.5593-2.7808,3.8357q-.8654,1.188-1.7336,2.3748-.8952,1.2168-1.798,2.4291l-96.1068,140.81q-2.1753,3.29-4.392,6.5518-2.1273,3.1253-4.3116,6.21c-.118.1665-.2312.3364-.3494.5029a48.6623,48.6623,0,0,1-3.9111,4.8071q-1.0525,1.1415-2.1719,2.2261c-1.37,1.3291-2.8152,2.5894-4.3071,3.8013-1.1153.9057-2.2634,1.7766-3.43,2.6245q-2.2768,1.656-4.651,3.177-3.6617,2.3422-7.4254,4.3259a75.9352,75.9352,0,0,1-34.78,9.2049q-3.2611.0387-6.5994-.2234c-1.3371-.1057-2.6738-.2559-4.0012-.4651a39.7391,39.7391,0,0,1-3.9456-.8206q-.975-.2567-1.9355-.5713a28.7121,28.7121,0,0,1-5.58-2.4946,29.2642,29.2642,0,0,1-2.95-1.1821c-24.7437-13.06-34.649-41.8089-29.4656-66.2693,4.1086-19.3872,12.6318-37.2639,19.5219-55.6846,6.3179-16.8926,13.3687-33.51,19.9971-50.2878q9.4933-24.0315,18.7639-48.1514c1.4229-3.7226,2.9153-7.4223,4.4239-11.1167,5.1416-12.59,10.4856-25.1142,14.03-38.2322q.3808-1.4091.7014-2.81a53.2012,53.2012,0,0,0-1.2034-28.5857l-.0481-.1438a75.4065,75.4065,0,0,0-14.8112-25.4936,60.3441,60.3441,0,0,0-5.2141-5.3032l-.06-.0528a71.64,71.64,0,0,0-35.7322-16.44A77.7434,77.7434,0,0,0,262.89,80.7688c-1.88.6145-3.7193,1.3167-5.5271,2.0816-.166.07-.3357.1323-.501.2038-.0427.0171-.0849.0359-.1267.0533a45.9981,45.9981,0,0,0-4.4165,2.1225,76.3275,76.3275,0,0,0-24.0017,19.7373c-.0237.0269-.0486.0542-.072.0811q-.579.6676-1.1358,1.34a54.9908,54.9908,0,0,0-8.9682,15.364c-5.0354,11.3125-6.9253,23.659-5.8526,36.8821,2.2061,27.1975,14.7813,49.2949,34.8587,67.3779a.8548.8548,0,0,0,1.3059.0894,19.9265,19.9265,0,0,0-.0086-2.0127,148.1014,148.1014,0,0,1,.7935-36.0981c1.366-9.3438,2.9006-18.6607,6.1626-27.5362,4.2483-11.5586,7.8926-23.4883,18.8452-31.1294,6.2151-4.3362,12.8853-5.9555,20.0911-4.2881,6.6682,1.543,11.37,5.6016,12.62,12.7735a31.47,31.47,0,0,1-1.833,17.0461q-11.5793,29.6694-23.4241,59.2346c-10.9084,27.2554-22.0906,54.4029-32.8171,81.73-6.3714,16.2315-13.8074,32.0948-18.0283,49.1172-2.9976,12.09-4.6685,24.3494-3.2889,36.8047,1.7376,15.6841,5.4,30.8477,12.94,44.8994a102.2516,102.2516,0,0,0,14.3208,20.9187,111.9258,111.9258,0,0,0,32.3264,24.1912c19.9622,10.1987,40.8553,12.269,62.5725,8.718,2.64-.4319,3.2061.11,3.68,2.4175,2.9888,14.5517,6.19,29.06,9.1431,43.6189q9.6547,47.5826,19.1189,95.204c2.594,13.0553,5.6829,26.0189,7.3721,39.2493.31,2.429.1445,4.9957,1.3571,7.702,1.4671-10.8525,2.7571-21.2587,4.3094-31.6255,1.45-9.6844,3.6662-19.2788,4.62-29.0037.6809-6.94,2.1309-13.74,3.0855-20.6077.9192-6.6137,2.5159-13.2392,3.3608-19.8725,1.1446-8.9805,3.0183-17.8379,4.6323-26.6939,1.96-10.7549,3.7269-21.5539,5.6231-32.32,2.8989-16.46,5.3027-33.01,7.7834-49.5413a7.0689,7.0689,0,0,1,3.139-4.7937c4.6274-3.6445,9.33-7.2319,13.6474-11.2263,13.8462-12.81,22.5928-29.1035,30.8521-45.729,9.4607-19.0442,17.6042-38.6577,25.289-58.4592,3.0247-7.794,5.6433-15.7507,8.2281-23.71,2.4067-7.4109,6.1123-19.6087,8.2592-27.0989,3.1206-10.8855,6.3728-21.7446,9.0784-32.7358.7937-3.2242,1.532-6.46,2.2483-9.7007L532.7755,199.4Z"/>
    <path class="cls-3" d="M402.48,404.6321c.2287-.2183.3681-.3487.368-.3487C402.1717,404.8157,402.1254,404.8816,402.48,404.6321Z"/>
  </g>
</svg>
