<svg id="Layer_1" data-name="Layer 1" xmlns="http://www.w3.org/2000/svg" width="348.7168" height="346.3706" viewBox="0 0 348.7168 346.3706">
  <defs>
    <style>
      .cls-1 {
        fill: #fff;
      }
    </style>
  </defs>
  <path class="cls-1" d="M348.7168,199.8634v2.049c-.099.4346-.2133.8665-.2934,1.3046-.1017.5568-.1384,1.1275-.2679,1.677a13.7942,13.7942,0,0,1-4.753,7.51c-.6093.5131-1.231,1.0119-1.8326,1.5337a16.2568,16.2568,0,0,0-1.2459,1.1639,3.8155,3.8155,0,0,0-1.0246,3.7662c.2693,1.0454.4844,2.1066.6772,3.1692a16.4821,16.4821,0,0,1-.0059,6.1072,7.7965,7.7965,0,0,0-.2007,1.3475,6.4522,6.4522,0,0,1-.4883,2.3233c-.4846,1.2136-.9763,2.4253-1.5045,3.62a10.7633,10.7633,0,0,1-4.4641,5.0151c-.88.522-1.72,1.1114-2.5682,1.6838a3.54,3.54,0,0,0-1.57,2.53c-.0736.5067-.1284,1.0161-.1918,1.5242a5.1359,5.1359,0,0,1-1.0371,2.4914c-.8578,1.1346-1.7126,2.2718-2.589,3.3919a13.2773,13.2773,0,0,1-4.1989,3.6987,23.65,23.65,0,0,0-5.4033,4.1278,15.6063,15.6063,0,0,0-3.905,6.3307c-.0542.1616-.088.33-.14.4925-.0688.2169-.134.4361-.2209.6459a4.6966,4.6966,0,0,1-4.5685,3.2186c-2.5037.0233-5.0077.0006-7.5115.0139a5.5908,5.5908,0,0,0-4.9259,2.8631,13.056,13.056,0,0,0-.6883,1.3713,16.0991,16.0991,0,0,1-2.7967,4.2659,12.8265,12.8265,0,0,0-3.0286,5.4645,4.8717,4.8717,0,0,1-.4277,1.1073,2.258,2.258,0,0,1-2.7483,1.105c-.2752-.0692-.5438-.1709-.8221-.22a3.485,3.485,0,0,0-3.61,1.3914c-.31.4053-.5658.8526-.84,1.2848a33.7488,33.7488,0,0,1-4.4152,5.6318,12.6425,12.6425,0,0,1-5.6012,3.4544,19.7249,19.7249,0,0,1-3.0227.4729c-2.2279.2628-3.2589,1.0916-3.7865,3.2855-.3182,1.3231-.4889,2.682-.7165,4.0264a13.4489,13.4489,0,0,1-2.4042,6.47c-.53.6621-.91,1.442-1.38,2.1545-1.001,1.52-1.98,3.0563-3.0327,4.54a12.8846,12.8846,0,0,1-6.0508,4.8244,27.1607,27.1607,0,0,1-8.8155,1.8167c-1.1946.0268-2.39.0633-3.5842.0465a5.0877,5.0877,0,0,0-4.5719,2.4919c-.4038.6176-.7449,1.2764-1.1116,1.9181-.9309,1.6291-1.8247,3.2808-2.7981,4.884a10.4327,10.4327,0,0,1-6.9117,4.8829,35.1656,35.1656,0,0,1-6.2584.7651c-1.6609.0676-3.2871-.2344-4.9311-.3264a14.1319,14.1319,0,0,1-4.3132-.9363c-.4775-.1835-.9462-.3925-1.43-.5553a3.598,3.598,0,0,0-3.77.9115,5.4782,5.4782,0,0,0-.6413.7951,9.6894,9.6894,0,0,1-5.0536,3.5956c-1.0335.3107-2.0537.6674-3.0735,1.0218a17.9162,17.9162,0,0,1-11.2358.1235,7.6892,7.6892,0,0,0-1.47-.4261,9.5791,9.5791,0,0,1-3.83-1.3381,7.7382,7.7382,0,0,0-5.2632-.9138,20.941,20.941,0,0,1-8.4719-.2992c-1.2742-.2912-2.5354-.6455-3.8174-.895a8.0132,8.0132,0,0,1-5.4766-3.7184,5.7637,5.7637,0,0,0-5.151-2.7906c-1.138-.0082-2.28.0561-3.4136-.0158a10.84,10.84,0,0,1-7.0856-2.9545c-1.968-1.8936-3.91-3.8155-5.9071-5.6773-1.08-1.0067-2.23-1.9432-3.3907-2.8577-1.2508-.9854-2.5474-1.913-3.8305-2.8569a17.0057,17.0057,0,0,0-6.789-3.0569c-1.4486-.29-2.9181-.4745-4.3757-.7216-3.5854-.6078-7.1816-1.1439-10.7311-1.9665a7.1214,7.1214,0,0,1-3.99-2.4305c-.2929-.3475-.5385-.7352-.8352-1.079a3.0377,3.0377,0,0,0-3.37-1.0342c-.49.1425-.967.332-1.4525.4921A28.489,28.489,0,0,1,78.67,312.257a20.2176,20.2176,0,0,1-12.8046-6.8394c-.593-.69-1.1356-1.4235-1.7231-2.1187a11.6912,11.6912,0,0,0-6.7262-4.0734c-1.1137-.2283-2.2219-.4839-3.337-.7043a25.3991,25.3991,0,0,1-8.87-3.383,17.1607,17.1607,0,0,1-7.9838-12.89c-.0968-.7314-.06-1.4807-.16-2.2113a6.9966,6.9966,0,0,0-4.755-6.1026c-.3738-.1357-.7579-.2428-1.1335-.3737a21.5811,21.5811,0,0,1-6.6853-3.6908A10.0039,10.0039,0,0,1,21.2,264.798a10.5736,10.5736,0,0,1-.3618-3.3785c.0666-1.82.146-3.639.2177-5.4586a8.6156,8.6156,0,0,0-2.4827-6.8346,13.91,13.91,0,0,1-1.9223-2.59,6.3523,6.3523,0,0,1-.9067-2.9068c-.1078-1.4752-.1931-2.9535-.3561-4.4229-.27-2.43-.5353-4.8622-.912-7.2765-.3152-2.02-.8043-4.0133-1.1849-6.0244a7.173,7.173,0,0,1,3.19-7.8452,14.179,14.179,0,0,0,1.5039-1.12,3.4744,3.4744,0,0,0,.4067-4.7757,11.1107,11.1107,0,0,0-4.93-3.8048,2.246,2.246,0,0,1-1.6748-2.191c.1935-.2717.414-.6.6537-.9128.2419-.3161.52-.6054.7525-.9275a2.8545,2.8545,0,0,0,.0118-3.4836c-.0982-.139-.2177-.2628-.3266-.3943a6.8687,6.8687,0,0,1-1.5749-4.4046c-.0516-2.6739-.1447-5.3476-.2591-8.02a24.2768,24.2768,0,0,1,.8085-7.4341,5.8917,5.8917,0,0,0,.2188-1.5114,3.2751,3.2751,0,0,0-2.1534-3.337,12.3409,12.3409,0,0,1-4.983-3.7786A22.695,22.695,0,0,1,.049,159.9675a30.1839,30.1839,0,0,1,.2384-4.7626,17.3732,17.3732,0,0,1,2.0188-7.1666,32.4326,32.4326,0,0,1,3.3255-5.3537,3.7578,3.7578,0,0,0,.6588-3.6955c-.1764-.54-.3387-1.0861-.4833-1.6358-.3761-1.4287-.8368-2.8442-1.0844-4.2956-.3911-2.2922-.6384-4.609-.9382-6.9165a3.9272,3.9272,0,0,1,.0042-.6822,12.7305,12.7305,0,0,1,2.7776-7.7276,14.0475,14.0475,0,0,0,.9377-1.2162,8.869,8.869,0,0,1,4.7965-3.6435,3.9262,3.9262,0,0,0,2.7869-3.7053c.1482-1.6429.2638-3.2914.3133-4.94a13.705,13.705,0,0,1,5.619-10.816c.5822-.4559,1.1705-.9059,1.7768-1.3289a10.6938,10.6938,0,0,0,3.0423-3.4093,4.2593,4.2593,0,0,0,.6305-2.6,11.596,11.596,0,0,1-.0812-1.19c.0189-.762.4538-1.0609,1.2526-.8972.2227.0457.4456.0935.6643.1548a3.5977,3.5977,0,0,0,4.1762-1.4827c1.243-1.6236,2.6166-3.1482,3.9518-4.7.7792-.9057,1.5946-1.78,2.393-2.6694.19-.2117.3911-.4152.5643-.64a5.6914,5.6914,0,0,0,.8677-5.9394c-.4464-1.1062-.999-2.1693-1.4925-3.257a2.2387,2.2387,0,0,1-.1536-1.8164,1.02,1.02,0,0,1,1.02-.7465,3.7172,3.7172,0,0,1,3.3505,1.6791c.2484.38.4492.7917.6866,1.18,1.2089,1.9759,2.5772,2.5007,4.7425,1.7562a23.5877,23.5877,0,0,1,7.7017-1.2955c1.3658-.0014,2.7316.0019,4.0972-.0108.511-.0047,1.0233-.0314,1.5323-.0782A6.3337,6.3337,0,0,0,67.3121,61.1c.1558-.6639.2417-1.3438.38-2.0122a16.8635,16.8635,0,0,1,4.6-8.7867,26.1238,26.1238,0,0,1,5.9619-4.52c.6493-.3527,1.307-.6951,1.9288-1.0923a12.0374,12.0374,0,0,0,5.6984-7.9511c.0562-.2782.1435-.55.2151-.8254a15.5969,15.5969,0,0,1,7.75-10.1313c4.17-2.3294,8.3028-4.7266,12.4544-7.09a22.1129,22.1129,0,0,0,6.3307-5.3894c.7143-.8859,1.4361-1.767,2.1879-2.6209a10.502,10.502,0,0,1,5.9145-3.4777,23.4585,23.4585,0,0,1,6.4572-.1722c1.1916.0835,2.3817.2188,3.5745.2489a19.4236,19.4236,0,0,1,8.0456,2.007,8.9679,8.9679,0,0,0,1.2378.5713A2.8923,2.8923,0,0,0,142.6822,9.7a18.4042,18.4042,0,0,0,3.0963-2.3758c1.5953-1.7782,3.3184-3.4411,4.9343-5.2015a6.2062,6.2062,0,0,1,6.6732-1.83A19.5659,19.5659,0,0,1,161.8243,2.02a16.1366,16.1366,0,0,0,8.02,1.96,46.0167,46.0167,0,0,1,6.4545.4965,58.1587,58.1587,0,0,1,5.8363,1.2171,5.5469,5.5469,0,0,0,5.0966-1.2056c.3067-.25.56-.5648.8476-.84a1.5038,1.5038,0,0,1,2.6034.5092,7.0678,7.0678,0,0,1,.2837,1.1532,6.3836,6.3836,0,0,0,4.5816,5.0284c.4362.1286.8676.2734,1.3055.3956a12.6683,12.6683,0,0,1,7.2962,5.2848,31.1735,31.1735,0,0,0,3.1637,3.792c1.012,1.0723,2.1555,2.022,3.2567,3.0083a6.0487,6.0487,0,0,0,3.3474,1.566,17.59,17.59,0,0,0,2.0376.1408c2.7883.0142,5.5775-.0341,8.3649.0177a43.9949,43.9949,0,0,1,4.5882.338,21.6833,21.6833,0,0,1,5.8737,1.717A13.4823,13.4823,0,0,0,238.87,27.75a12.7162,12.7162,0,0,0,5.3807-.5891,22.1835,22.1835,0,0,1,10.1-1.0228c2.1423.2707,4.2681.6713,6.4013,1.014a12.3113,12.3113,0,0,1,7.3639,3.9395,49.7643,49.7643,0,0,1,5.3379,6.6392,4.5265,4.5265,0,0,0,2.6693,2.0046,9.7455,9.7455,0,0,0,2.3446.3307c2.731.0393,5.4633-.0133,8.194.0305a23.3235,23.3235,0,0,1,3.3911.3109,7.5887,7.5887,0,0,1,3.5945,1.4715,34.5089,34.5089,0,0,1,5.9588,5.8324,12.0627,12.0627,0,0,1,2.5611,7.0908c.02.5113.0216,1.0246.0712,1.5331a4.1117,4.1117,0,0,0,3.6125,3.543c1.0771.083,2.1488.2477,3.2266.3091a5.085,5.085,0,0,1,3.7223,1.8224,9.9176,9.9176,0,0,1,1.4023,2.1238c1.4205,2.9761,2.7447,5.9983,4.1741,8.97a11.194,11.194,0,0,1,1.386,6.0683,1.6573,1.6573,0,0,0,.0144.3406,3.4246,3.4246,0,0,0,1.6333,2.8387c.294.1709.5605.3891.84.5848a6.6,6.6,0,0,1,2.9842,6.7745c-.4226,3.0413-.7757,6.0922-1.2051,9.1324a4.85,4.85,0,0,0,2.0645,4.9005q.2055.1527.4036.3151a6.7225,6.7225,0,0,1,2.5827,5.1752c.0315,1.0231.0194,2.0489-.0129,3.0722a6.6975,6.6975,0,0,1-1.4566,4.0948,6.5194,6.5194,0,0,0-1.3207,5.3069,14.6987,14.6987,0,0,1,.2432,1.86,8.7444,8.7444,0,0,0,3.2862,6.505,9.4287,9.4287,0,0,1,3.2222,6.0186,58.9161,58.9161,0,0,1,.6938,9.5216c-.0151,1.3656-.0233,2.7323.0122,4.0973a6.4223,6.4223,0,0,0,2.909,5.6624c1.05.6773,2.0186,1.4787,3.0337,2.2107a14.071,14.071,0,0,1,4.47,5.0768,26.9054,26.9054,0,0,1,2.2026,5.8991,32.1706,32.1706,0,0,1,.6471,7.8028,24.1727,24.1727,0,0,1-1.0476,7.0632,10.48,10.48,0,0,0,.71,8.4209,14.7721,14.7721,0,0,1,1.7525,6.5376A8.9415,8.9415,0,0,0,348.7168,199.8634Zm-156.1434-25.77a.73.73,0,0,0-.6886.8048,6.6284,6.6284,0,0,0,.1437,1.5213c.71,3.1079,1.2139,6.25,1.6523,9.4057a8.2179,8.2179,0,0,0,2.35,4.6435,2.3852,2.3852,0,0,0,.9463.69,3.358,3.358,0,0,1,1.6058,1.2123,9.069,9.069,0,0,1,2.4019,5.8831c.0473,2.5017.0511,5.0084-.054,7.5075a5.4594,5.4594,0,0,0,1.4933,4.3586,8.2617,8.2617,0,0,1,2.18,4.5466,27.2567,27.2567,0,0,1,.2887,2.7133c.1205,1.8166.2077,3.6355.305,5.4536.0243.4545.0521.91.0484,1.3645a3.6876,3.6876,0,0,1-3.078,3.7435c-.449.0644-.8877.1982-1.3354.2763a1.4971,1.4971,0,0,0-1.253,1.2394,4.2238,4.2238,0,0,0-.09,1.52,19.5806,19.5806,0,0,0,.5439,2.3161,13.37,13.37,0,0,1,.7258,5.0362c-.1918,1.693-.4629,3.3811-.7895,5.0538a28.2931,28.2931,0,0,1-3.7061,9.12,7.2627,7.2627,0,0,1-3.1277,3.0351,5.0081,5.0081,0,0,0-2.893,3.7679c-.3025,1.5047-.6044,3.014-1.0126,4.4921-1.0346,3.7469-2.3828,7.3323-5.1688,10.2179a28.5757,28.5757,0,0,1-4.7921,4.0806,44.3812,44.3812,0,0,1-6.4208,3.5259,4.9975,4.9975,0,0,0-3.1024,4.3351c-.18,1.5241-.43,3.0412-.691,4.5541a11.8934,11.8934,0,0,1-2.8325,6.29q-3.54,3.8157-7.1276,7.5874a7.6106,7.6106,0,0,1-6.8582,2.2417c-.6753-.088-1.3383-.267-2.0116-.3761-2.4124-.3906-4.8241-.7873-7.2419-1.1416a5.4034,5.4034,0,0,0-2.3352.03c-.5572,1.1281-.6208,1.3827-.2452,2.0981a5.2161,5.2161,0,0,0,3.5877,2.9063,37.3678,37.3678,0,0,0,4.0347.6685,10.965,10.965,0,0,1,4.8,1.6294,18.5713,18.5713,0,0,0,5.4816,2.2759,15.16,15.16,0,0,0,6.0785.3542,14.574,14.574,0,0,1,8.3749.8169c.2062.0918.4423.1158.65.2055a3.095,3.095,0,0,0,3.7354-.7381,6.403,6.403,0,0,1,2.6006-1.5876,23.8317,23.8317,0,0,1,9.2514-1.1541,8.4721,8.4721,0,0,1,3.2706.8923c.3529.1832.7166.3453,1.0753.5174a2.0284,2.0284,0,0,0,1.8093-.07,2.7214,2.7214,0,0,0,1.2391-1.1274,9.9117,9.9117,0,0,1,3.239-3.2193c1.8108-1.18,3.6571-2.3089,5.4226-3.5527a11.4981,11.4981,0,0,1,6.2471-1.9818c1.59-.0813,3.1768-.2342,4.763-.3777a5.0767,5.0767,0,0,0,4.0388-2.5157,6.0668,6.0668,0,0,0,.6489-1.5665,18.8369,18.8369,0,0,1,4.3574-7.8273c.5763-.63,1.1376-1.2726,1.7051-1.91a10.33,10.33,0,0,1,7.6575-3.5587,4.5712,4.5712,0,0,0,4.3543-4.0456,13.1489,13.1489,0,0,0,.0565-1.5336c.0053-2.4471.056-4.8957-.014-7.3408a11.279,11.279,0,0,1,1.4512-5.8937,42.4234,42.4234,0,0,1,4.4093-6.4812c1.163-1.3991,2.2972-2.8223,3.47-4.2128a4.0359,4.0359,0,0,0-.0755-5.5692,7.7911,7.7911,0,0,1-1.9413-3.93c-.1734-.8883-.2252-1.8-.3488-2.6986a20.3787,20.3787,0,0,1,.29-5.7659,14.6423,14.6423,0,0,1,1.9372-5.0524c.3881-.6943.84-1.3529,1.2555-2.0318a3.2658,3.2658,0,0,0-.6636-4.7022c-.7531-.6938-1.5323-1.3594-2.3009-2.0363a9.6317,9.6317,0,0,1-3.17-5.3376,29.8674,29.8674,0,0,1-.6167-4.7269,32.4061,32.4061,0,0,0-.7824-5.7364,7.17,7.17,0,0,0-4.3838-5.2942,6.0756,6.0756,0,0,1-1.4419-.8914,12.8,12.8,0,0,1-4.6995-7.1283c-.2854-1.2164-.5453-2.4437-.7211-3.68a2.5785,2.5785,0,0,0-1.9572-2.3123c-.2176-.0654-.4273-.1568-.6443-.2244-1.899-.5913-3.7889-1.2149-5.702-1.7569a8.916,8.916,0,0,1-3.2823-1.751c-.5253-.4331-1.0606-.8593-1.6245-1.2393a1.9791,1.9791,0,0,0-2.7809.1865c-.5119.45-.947.9878-1.4656,1.4287a1.5945,1.5945,0,0,1-.8971.3763c-.9264.0353-1.3263-.4914-1.2415-1.5691a6.4915,6.4915,0,0,0-2.69-6.1046q-2.7456-2.0234-5.5951-3.9045a2.6353,2.6353,0,0,0-3.7469.7414c-.2648.3688-.4674.7821-.7308,1.1519-.6772.9507-1.5574.9373-2.1339-.0538a4.9417,4.9417,0,0,0-1.625-1.9335C193.7987,174.8944,193.1961,174.4914,192.5734,174.0937Zm115.906-2.1653c.0471-.7953.1012-1.59.1392-2.386s.102-1.5932.0815-2.388a4.4085,4.4085,0,0,0-4.3916-4.5046c-.3408-.0172-.6835-.0015-1.0239-.0228a9.3876,9.3876,0,0,1-7.0875-3.5677c-.5681-.711-1.1712-1.3938-1.7572-2.09-2.38-2.83-4.7335-5.6827-7.1508-8.48a52.4228,52.4228,0,0,0-3.7617-3.9513,9.9267,9.9267,0,0,0-5.8982-2.808,16.6741,16.6741,0,0,1-7.3749-2.4567,2.9139,2.9139,0,0,0-3.6307.3908c-.57.462-1.031,1.0575-1.5587,1.5748a8.41,8.41,0,0,1-1.1441,1.0119,1.6834,1.6834,0,0,1-2.303-.3034,3.5976,3.5976,0,0,1-.644-1.1821,7.0964,7.0964,0,0,1,.0117-4.3663,5.7931,5.7931,0,0,0,.3125-1.6519c.001-1.0667-.5049-1.5137-1.6045-1.528-1.024-.0134-2.0491.0295-3.0725.002a18.4127,18.4127,0,0,1-7.1351-1.4725,24.696,24.696,0,0,0-3.5-1.3331,8.4154,8.4154,0,0,0-7.3581.9768,12.3593,12.3593,0,0,1-7.2415,2.1366c-1.3089.0017-2.6178.0017-3.9266.01a9.3124,9.3124,0,0,0-5.2982,1.636,15.0547,15.0547,0,0,1-4.9683,2.19c-1.2675.3069-2.5621.5188-3.8547.7018a12.8562,12.8562,0,0,0-6.8457,2.812,14.3506,14.3506,0,0,1-4.5743,2.5846c-.7475.2727-1.5068.5144-2.2466.806a10.25,10.25,0,0,0-3.7968,2.5446c-.9685,1.0394-1.9275,2.0892-2.8527,3.1671a3.8,3.8,0,0,0-.2815,4.6031,3.6438,3.6438,0,0,0,4.108,1.709,9.3628,9.3628,0,0,0,1.1328-.367c.3744-.1346.75-.2714,1.1106-.4373a3.3767,3.3767,0,0,1,2.8156.0009,7.027,7.027,0,0,1,1.21.6192,5.1265,5.1265,0,0,0,3.5816.7984c.6213-.0739,1.2551-.0735,1.8667-.192a17.9835,17.9835,0,0,1,13.24,3.1787,11.8876,11.8876,0,0,0,5.9077,2.44,32.1016,32.1016,0,0,1,5.9919,1.2992,8.339,8.339,0,0,0,1.32.3409,5.5815,5.5815,0,0,1,3.754,2.4433,9.5246,9.5246,0,0,1,1.8649,4.8787c.0252.34.0288.6847.0859,1.02a2.7451,2.7451,0,0,0,2.3752,2.3371,12.2087,12.2087,0,0,0,1.3615.0742,26.66,26.66,0,0,1,6.58.8642,10.48,10.48,0,0,1,4.8861,2.6617,12.63,12.63,0,0,1,3.2725,6.0858,32.5341,32.5341,0,0,1,.7919,7.1089c-.0042.5121-.02,1.0268.0219,1.536a3.836,3.836,0,0,0,2.8053,3.487c.3794.1194.7695.2041,1.1512.3166a19.5031,19.5031,0,0,1,11.45,8.8818,10.6558,10.6558,0,0,1,1.5758,4.8232,20.0175,20.0175,0,0,1-.8285,7.758,14.04,14.04,0,0,0-.4269,1.474,3.2707,3.2707,0,0,0,1.5845,3.483c.8623.43,1.6851.94,2.5266,1.4124,3.8391,2.1547,6.18,5.3112,6.4449,9.7992.1036,1.7588.0976,3.5262.0814,5.2892A7.2949,7.2949,0,0,1,285.37,243.11c-.1624.3-.3594.5809-.523.88a3.3214,3.3214,0,0,0-.04,3.1037,5.2,5.2,0,0,0,2.5173,2.4171,3.8581,3.8581,0,0,0,4.2011-.053c.9575-.6143,1.93-1.2076,2.8618-1.8593a7.8874,7.8874,0,0,0,3.26-4.6367,37.442,37.442,0,0,1,3.4581-8.3171,4.7456,4.7456,0,0,1,2.7347-2.4273c.2689-.089.52-.2294.7837-.3364a2.71,2.71,0,0,0,1.8444-2.4372,9.0846,9.0846,0,0,1,.1436-1.0128,5.7334,5.7334,0,0,1,1.6751-3.1033,25.5758,25.5758,0,0,0,4.3185-5.6757,8.0186,8.0186,0,0,0,.4512-7.8267,12.3489,12.3489,0,0,1-1.05-3.407c-.3959-2.93-.6388-5.88-.9228-8.8246a5.0454,5.0454,0,0,1,.4539-2.6654,18.4322,18.4322,0,0,1,1.32-2.3755,14.119,14.119,0,0,0,2.0819-4.2658c.4516-1.7156.115-2.4626-1.5373-3.187a5.7993,5.7993,0,0,1-3.0859-2.8128,16.3587,16.3587,0,0,1-1.189-3.3675A30.7423,30.7423,0,0,1,308.4794,171.9284ZM100.7172,158.4639a17.2706,17.2706,0,0,1-9.5735-2.6558,8.4906,8.4906,0,0,1-4.4514-6.8742c-.1344-1.4709-.3323-2.9415-.6022-4.3935a6.417,6.417,0,0,0-3.8478-5.0724,38.97,38.97,0,0,1-5.319-3.0523,14.4213,14.4213,0,0,1-4.2535-4.1321,13.874,13.874,0,0,1-2.05-12.3351,18.9863,18.9863,0,0,0,.7437-5.5625,6.9058,6.9058,0,0,0-2.1973-5.19c-.7-.6675-1.4034-1.3325-2.13-1.97a10.4991,10.4991,0,0,1-3.6873-7.2682,36.1349,36.1349,0,0,1,.1344-8.6835,8.5646,8.5646,0,0,0,.0939-2.0385A2.6193,2.6193,0,0,0,61.5583,86.77a4.6456,4.6456,0,0,0-1.8435-.1277A4.8319,4.8319,0,0,0,55.79,89.8076a20.9663,20.9663,0,0,1-4.5529,6.5387c-.9529.9781-1.8991,1.9659-2.9005,2.8929a10.3213,10.3213,0,0,0-3.206,6.4275,27.1318,27.1318,0,0,1-2.067,7.19,10.4551,10.4551,0,0,1-3.1353,4.1915,8.027,8.027,0,0,0-1.0072.9176,5.7653,5.7653,0,0,0-1.6444,3.6578c-.1131,2.387-.2646,4.7736-.3092,7.162a27.9112,27.9112,0,0,1-1.2577,7.8883c-.2552.8134-.5008,1.6337-.6806,2.466a3.6343,3.6343,0,0,0,1.8345,4.0491,12.7091,12.7091,0,0,0,1.2379.571c1.463.6261,2.93,1.2427,4.3929,1.8694.418.1791.8223.39,1.24.569a1.3173,1.3173,0,0,1,.7732,1.2275,1.0126,1.0126,0,0,1-.73,1.0328c-.4142.1869-.81.4156-1.2257.598A3.194,3.194,0,0,0,40.78,151.229a9.9745,9.9745,0,0,0-.2464,1.1678c-.5566,3.1929-1.1329,6.3826-1.6477,9.5822a18.2587,18.2587,0,0,0-.174,2.8888,2.8587,2.8587,0,0,0,1.7366,2.7143q.919.4487,1.8572.8582a29.0277,29.0277,0,0,1,6.9837,4.5413c.6508.5484,1.2894,1.1116,1.9472,1.6513a7.4279,7.4279,0,0,1,2.7532,4.3838c.4315,2.174.943,4.3321,1.3734,6.5063a4.12,4.12,0,0,0,2.3213,2.9751,7.2578,7.2578,0,0,0,1.1184.4129c1.7846.574,3.5676,1.1533,5.3587,1.7064a13.64,13.64,0,0,1,4.7789,2.5637,36.6975,36.6975,0,0,1,5.8547,5.9478,14.6625,14.6625,0,0,0,1.7081,1.8989,4.1391,4.1391,0,0,0,3.9361,1.122,31.6681,31.6681,0,0,1,7.1211-.6013,11.1472,11.1472,0,0,1,5.7022,1.4686,24.7279,24.7279,0,0,0,6.3432,2.4428,5.2915,5.2915,0,0,0,3.7837-.5781,9.0943,9.0943,0,0,0,.8552-.5613,7.95,7.95,0,0,1,4.8273-1.4167c1.3072.0471,2.6128.14,3.9191.2109,1.0791.0585,2.1577.1423,3.2375.1634a4.2125,4.2125,0,0,0,3.1229-1.1221c1.2791-1.2092,2.6285-2.3452,3.8851-3.5766a6.1618,6.1618,0,0,1,3.5733-1.8266,19.0214,19.0214,0,0,1,2.2071-.1652q2.4745-.0374,4.95-.0056a4.5212,4.5212,0,0,0,3.6819-1.8228,5.7223,5.7223,0,0,0,.6693-.9864,5.7515,5.7515,0,0,1,4.4328-3.1036c.8409-.14,1.6761-.3139,2.5162-.4593a3.0355,3.0355,0,0,0,2.3274-1.8034c.1461-.3068.2553-.6315.3734-.951a7.9884,7.9884,0,0,1,2.047-3.1034c.87-.8181,1.6977-1.6818,2.5351-2.5341a8.6335,8.6335,0,0,0,1.7919-2.68,3.4178,3.4178,0,0,0,.1856-2.3094c-.4053-1.571-.84-2.0641-2.4053-2.0871-1.3612-.02-2.724.0865-4.0864.1247-.8518.0238-1.7049.0526-2.556.0288-1.1345-.0318-2.267-.1389-3.4015-.1654-1.308-.03-2.6172-.0076-3.9258-.0089a36.7347,36.7347,0,0,1-8.1082-.9963c-4.9979-1.1332-9.8419-2.7682-14.7034-4.358a12.7167,12.7167,0,0,1-7.78-6.7113,18.8723,18.8723,0,0,0-1.0364-1.9589,4.7824,4.7824,0,0,0-4.619-2.3293C101.51,158.3954,101.1135,158.4314,100.7172,158.4639Zm15.6646,118.6984-.0028.0728c1.5345.0571,3.0687.1243,4.6036.168a10.6691,10.6691,0,0,0,3.5246-.5475,27.3627,27.3627,0,0,0,10.5876-6.0178c.9168-.8523,1.8914-1.6445,2.78-2.524a7.9443,7.9443,0,0,1,6.1807-2.3571c1.4772.0568,2.9585.0116,4.4379.0055a6.67,6.67,0,0,0,6.1822-5.0151,27.5563,27.5563,0,0,0,.7346-4.0224,8.1186,8.1186,0,0,1,2.5021-5.0924,11.9565,11.9565,0,0,1,3.6645-2.4569c.6777-.2942,1.3612-.575,2.04-.8665a9.31,9.31,0,0,0,5.4712-6.3634c.2476-.8749.4577-1.7608.67-2.6453a15.7489,15.7489,0,0,1,4.7015-8.3353c1.73-1.559,1.8956-3.5407,1.2577-5.6448a9.2153,9.2153,0,0,0-.8318-1.867,6.4748,6.4748,0,0,1-.34-5.5971,24.6376,24.6376,0,0,1,3.4295-6.6429c1.3738-1.8634,1.3787-3.0646.1458-5.0015a6.6014,6.6014,0,0,1-1.1362-2.6445c-.19-1.4636-.3505-2.9374-.4023-4.4111-.0559-1.59-.0021-3.1859.0581-4.7772a14.4538,14.4538,0,0,0-1.163-5.6429,1.9486,1.9486,0,0,0-1.6076-1.3726c-.8681-.0941-1.35.4619-1.7209,1.15-.0269.05-.0561.099-.0831.1491a19.0417,19.0417,0,0,0-1.9349,4.9006c-.4852,2.1794-1.7221,3.1171-4.0054,3.1053a16.7508,16.7508,0,0,0-1.8758.028,3.6765,3.6765,0,0,0-3.396,3.4619c-.0228.2261-.0188.4548-.032.6819-.2872,4.94-2.9055,8.3814-7.0466,10.7763a15.8976,15.8976,0,0,1-3.1718,1.2076,3.9265,3.9265,0,0,0-3.0552,3.4761,6.27,6.27,0,0,1-2.1829,3.9414c-.4183.3844-.91.6927-1.3073,1.0955a11.3927,11.3927,0,0,1-7.0056,3.1893c-2.37.29-4.7481.5673-7.131.6956a7.1023,7.1023,0,0,0-5.272,2.7423c-.4378.5222-.802,1.1059-1.2359,1.6318a8.0776,8.0776,0,0,1-5.94,3.2666c-.3967.021-.7908.0935-1.1858.1435a26.4483,26.4483,0,0,1-11.3169-.7929c-.8674-.2695-1.7589-.4619-2.64-.6868a3.305,3.305,0,0,0-3.7793,1.2563c-.3742.5016-.7457,1.0071-1.1509,1.4831a8.2286,8.2286,0,0,1-7.0746,3.0679c-.9072-.0539-1.81-.1853-2.7136-.2932-2.3151-.2763-4.6262-.5922-6.9457-.8241a8.0046,8.0046,0,0,1-2.7688-.7844,15.99,15.99,0,0,1-5.1863-4.0954c-.8825-1.0421-1.7421-2.1036-2.6282-3.1426-1.0327-1.2108-1.6677-1.3563-3.1386-.8a26.9227,26.9227,0,0,1-2.5662.907c-2.0864.556-4.2028,1.0016-6.2822,1.5809a6.7,6.7,0,0,1-5.8537-.926,6.1689,6.1689,0,0,0-2.8435-1.0754,25.042,25.042,0,0,0-2.8889-.1663,3.1111,3.1111,0,0,0-3.1712,3.8621c.1708,1.0089.3626,2.0162.5977,3.0117a6.7825,6.7825,0,0,1-.3691,4.6655,4.3243,4.3243,0,0,0,.5938,4.7876,29.81,29.81,0,0,0,3.5639,4.1263c.9937.936,1.9551,1.9073,2.9091,2.8841a18.8244,18.8244,0,0,1,3.23,4.38c.5036.9558.9984,1.9223,1.5864,2.8258a10.3023,10.3023,0,0,0,1.61,1.9672,5.2494,5.2494,0,0,0,3.61,1.2914,9.7078,9.7078,0,0,1,6.9031,2.88c1.0525,1.0389,2.1592,2.0229,3.2358,3.0377a3.43,3.43,0,0,0,4.3459.7429,2.3389,2.3389,0,0,1,.3063-.15,1.334,1.334,0,0,1,1.99,1.1314c.0608.3912.0461.7941.068,1.1916a3.7145,3.7145,0,0,0,.6822,1.9028,5.04,5.04,0,0,0,3.124,2.2071c1.4963.34,2.993.6789,4.4923,1.0055a27.6878,27.6878,0,0,1,7.6607,2.7908,2.8059,2.8059,0,0,0,.6.3176,2.8343,2.8343,0,0,0,2.5973-.3616,2.098,2.098,0,0,0,.7421-1.8207c-.0129-1.5933-.0394-3.188.0145-4.7795a9.09,9.09,0,0,1,.3656-2.1691,2.6835,2.6835,0,0,1,1.26-1.557,1.2616,1.2616,0,0,1,2.0333,1.0916c.0358,1.0231-.0046,2.0487.0239,3.0722a6.4974,6.4974,0,0,0,1.2634,3.6527,4.744,4.744,0,0,0,5.5643,1.8312,12.1627,12.1627,0,0,1,5.1972-.7059C114.2208,277.0887,115.3017,277.1188,116.3818,277.1623Zm51.9117-138.9756a16.8218,16.8218,0,0,0,.3,2.1782,5.233,5.233,0,0,0,2.9643,3.1206,2.0687,2.0687,0,0,0,2.8083-.8687c.3447-.52.5988-1.0988.9277-1.63.8076-1.3049,1.6095-2.6146,2.4614-3.8905s1.8266-2.4747,2.63-3.78c.8413-1.3669,2.0776-2.3952,2.9668-3.7158.6981-1.037,1.4544-2.04,2.2476-3.0067a7.17,7.17,0,0,1,5.4133-2.8514,4.7307,4.7307,0,0,0,4.6733-3.5395,14.4328,14.4328,0,0,1,7.3889-8.3261,5.3523,5.3523,0,0,1,1.4433-.4683,28.3853,28.3853,0,0,1,5.602-.4793c1.0242.0047,2.0485-.01,3.0726,0a4.9171,4.9171,0,0,0,4.5921-2.4068,7.947,7.947,0,0,1,3.7665-3.0967c1.043-.4491,2.11-.8439,3.1749-1.24a29.9985,29.9985,0,0,1,8.8673-1.5743,8.8857,8.8857,0,0,1,5.1054,1.08,3.9921,3.9921,0,0,0,4.498-.1824c.811-.5254,1.6444-1.0169,2.4755-1.5106a15.7035,15.7035,0,0,1,5.3865-2.06,37.8244,37.8244,0,0,1,7.6432-.5711c.8529.0284,1.7071.0248,2.5594.0653a10.7248,10.7248,0,0,1,7.9693,3.6775,8.6506,8.6506,0,0,0,6.8877,3.1611c.5121-.0031,1.0244-.01,1.5363,0a2.38,2.38,0,0,0,1.9916-.7871,3.5618,3.5618,0,0,1,3.0677-1.1532,19.5925,19.5925,0,0,1,7.1239,1.5487,36.3018,36.3018,0,0,0,8.1882,2.299,11.8808,11.8808,0,0,0,2.7177.0884,1.6285,1.6285,0,0,0,1.6389-1.8086,7.3055,7.3055,0,0,0-.7078-3.477c-.7351-1.4748-1.4695-2.95-2.18-4.4368-.7849-1.6412-1.54-3.2966-2.3136-4.9434a5.2661,5.2661,0,0,1-.2648-3.8219,7.15,7.15,0,0,0,.2786-2.0053,2.0437,2.0437,0,0,0-2.0818-2.2149,6.1864,6.1864,0,0,1-2.1157-.5972,11.3269,11.3269,0,0,1-3.7114-2.6765c-.5376-.5873-1.07-1.1816-1.644-1.7327a10.1664,10.1664,0,0,1-2.488-3.8309c-.2587-.6913-.47-1.4-.71-2.0988a4.8157,4.8157,0,0,0-4.9773-3.6c-1.4792-.0175-2.9592-.0236-4.4382,0a7.7938,7.7938,0,0,1-6.28-2.9,16.8685,16.8685,0,0,1-2.74-4.5c-.1773-.4188-.3326-.8471-.5174-1.2623a3.2559,3.2559,0,0,0-4.2995-1.9962c-.7071.2133-1.4015.468-2.1054.6925a17.8811,17.8811,0,0,1-5.8687.951c-1.5883-.0382-3.17-.2906-4.759-.3631a11.18,11.18,0,0,1-6-2.1936c-.7918-.5553-1.546-1.1752-2.3807-1.6553a34.8026,34.8026,0,0,0-3.4882-1.7641,2.5257,2.5257,0,0,0-2.9518.7132c-.2.2013-.3706.4317-.5636.64a9.4906,9.4906,0,0,1-6.5276,3.2949c-1.0788.0675-2.1582.125-3.2372.19-1.3629.0816-2.7249.1829-4.0887.2439a5.6047,5.6047,0,0,0-3.2769,1.287c-.2681.2108-.5125.4517-.7795.6641a8.3011,8.3011,0,0,1-4.3112,1.8806,6.2632,6.2632,0,0,0-3.965,2.1332,6.8519,6.8519,0,0,1-3.9533,2.1769,17.5889,17.5889,0,0,1-4.042.4893,15.0547,15.0547,0,0,0-2.0368.16c-.6772.063-1.3535.19-2.0305.1918a5.4776,5.4776,0,0,0-4.2865,2.1129,7.2749,7.2749,0,0,0-1.5718,3.5457c-.1513.8394-.2713,1.6844-.4238,2.5236a13.9809,13.9809,0,0,1-3.7113,7.3538,6.6478,6.6478,0,0,1-5.03,2.145c-.5121-.0048-1.0248-.0137-1.5362.0056a3.1192,3.1192,0,0,0-3.1638,3.4578,27.64,27.64,0,0,1-.7814,8.4514,7.6239,7.6239,0,0,1-4.9154,6.0471c-1.4415.5593-1.775,1.6289-1.1437,3.0269.0936.2071.21.4037.3082.6089a6.8849,6.8849,0,0,1,.6677,3.8126c-.07.6216-.1119,1.2468-.1547,1.8711-.1912,2.7906-.4771,5.54-1.9573,8.037a3.9989,3.9989,0,0,0-.1111,3.6345c.4284,1.0527.8789,2.1,1.387,3.1157a7.26,7.26,0,0,1,.4749,5.3054C168.6026,136.1887,168.4665,137.263,168.2935,138.1867Zm-1.6044-111.13c-3.1352.1432-5.9285.1694-8.701.4223-3.6791.3356-7.3427.8435-11.0118,1.2868a3.4648,3.4648,0,0,0-3.1255,2.9171c-.0645.3338-.0539.6817-.1132,1.0169a4.7171,4.7171,0,0,1-3.3427,3.9376c-.3774.1248-.7623.2278-1.1466.33-3.2953.8794-6.5486,1.8915-9.7763,2.9955a12.091,12.091,0,0,0-6.9653,5.9279c-.7285,1.35-1.493,2.6819-2.2612,4.01a16.0647,16.0647,0,0,1-3.7316,4.405c-.8333.684-1.7246,1.3-2.6112,1.916a9.9827,9.9827,0,0,0-3.8943,5.2452,14.21,14.21,0,0,0-.6606,4.0219,14.0061,14.0061,0,0,1-2.6541,8.1388c-.4388.5938-.8328,1.2215-1.2327,1.843a4.6719,4.6719,0,0,0-.4676,4.5527,11.326,11.326,0,0,1,1.0079,4.2918q.0189,4.5233-.0138,9.0466a4.6434,4.6434,0,0,1-2.0008,3.7773,4.5922,4.5922,0,0,1-1.0368.5823,6.3781,6.3781,0,0,0-3.8608,4.6724c-.1942.7718-.4354,1.5345-.5824,2.315a7.33,7.33,0,0,0,2.6213,7.6322c.1775.1424.3613.2774.5332.4263a11.259,11.259,0,0,1,4.0735,8.6664,11.3207,11.3207,0,0,0,.377,2.8572,9.6826,9.6826,0,0,0,4.1377,5.646,15.0372,15.0372,0,0,1,6.3057,8.43,16.574,16.574,0,0,0,.6192,1.7688,7.6653,7.6653,0,0,0,4.9966,4.5532,10.1081,10.1081,0,0,0,2.3545.3049,7.6382,7.6382,0,0,1,6.0651,3.3091c.2684.3672.5094.7545.78,1.12a9.474,9.474,0,0,0,5.4074,3.6385c1.1.2838,2.1861.62,3.2888.8908a17.5007,17.5007,0,0,1,8.1607,4.3846,3.5417,3.5417,0,0,0,5.0675-.1285,6.3566,6.3566,0,0,0,1.4774-2.0628,2.5566,2.5566,0,0,0-.6921-3.3687,16.8388,16.8388,0,0,1-3.2092-3.9608c-.3514-.5851-.7477-1.1442-1.08-1.7395a23.6378,23.6378,0,0,0-4.8843-6.0984,11.9846,11.9846,0,0,1-2.8215-4.0258,4.6636,4.6636,0,0,1,.14-4.2713c.2088-.4034.4686-.78.69-1.1775,1.8677-3.3581,2.2654-6.7341.247-10.2079a12.6857,12.6857,0,0,1-1.2412-2.9829c-.7144-2.5988-.814-5.1122.9195-7.4858a15.3251,15.3251,0,0,0,2.5242-6.2818,6.1763,6.1763,0,0,0-.3662-3.665c-.1758-.4183-.4028-.8155-.6132-1.2188a5.087,5.087,0,0,1-.33-4.13c.4913-1.4541.9739-2.9135,1.536-4.3407a18.8372,18.8372,0,0,1,3.3444-5.5207c1.3467-1.542,2.7253-3.0564,4.1055-4.5688a2.9351,2.9351,0,0,0,.6266-3.8655c-.1155-.26-.2346-.5176-.3512-.7766a6.3687,6.3687,0,0,1-.471-3.9981c.0576-.2783.1139-.5582.1461-.84a17.4558,17.4558,0,0,1,4.4593-10.1151,17.7843,17.7843,0,0,1,7.3356-5.0941c1.3949-.4856,2.7715-1.0236,4.1582-1.533a4.4507,4.4507,0,0,0,3.01-3.7984c.0922-.6174.1066-1.2461.1694-1.8684A10.1011,10.1011,0,0,1,174.2,44.0606c.4781-.6326.9558-1.2678,1.3933-1.9285a79.9823,79.9823,0,0,0,4.4445-7.8679,4.7092,4.7092,0,0,0-.6286-5.2328A3.5681,3.5681,0,0,0,176.9,27.7386C173.3825,27.5012,169.8644,27.2685,166.6891,27.0568Z"/>
</svg>
