<svg id="Layer_1" data-name="Layer 1" xmlns="http://www.w3.org/2000/svg" width="411.2338" height="292.2569" viewBox="0 0 411.2338 292.2569">
  <defs>
    <style>
      .cls-1 {
        fill: #fff;
      }
    </style>
  </defs>
  <g>
    <path class="cls-1" d="M175.1609,175.9635a47.2522,47.2522,0,0,0,60.911.0009L410.4538,21.8751A28.494,28.494,0,0,0,382.7452,0H28.4886A28.4941,28.4941,0,0,0,.7871,21.8445Z"/>
    <path class="cls-1" d="M254.6109,197.6l-.1614.1354a75.8945,75.8945,0,0,1-97.6648-.0009l-.32-.2745L0,59.17V263.7683a28.4886,28.4886,0,0,0,28.4886,28.4886H382.7452a28.4886,28.4886,0,0,0,28.4886-28.4886V59.2029Z"/>
  </g>
</svg>
