<svg id="Layer_1" data-name="Layer 1" xmlns="http://www.w3.org/2000/svg" width="348.7168" height="340.218" viewBox="0 0 348.7168 340.218">
  <defs>
    <style>
      .cls-1 {
        fill: #fff;
      }
    </style>
  </defs>
  <g>
    <path class="cls-1" d="M324.6816,87.2085a172.9026,172.9026,0,0,0-63.1834-63.173Q221.5864.7448,174.36.7466q-47.247,0-87.152,23.2889a172.8754,172.8754,0,0,0-63.173,63.173Q.7446,127.115.7464,174.357q0,56.7411,33.1107,102.0547,33.1229,45.317,85.5669,62.7256c4.0648.76,7.0856.2323,9.0348-1.5711A8.8487,8.8487,0,0,0,131.4,330.779q0-.6711-.1075-12.2082-.1248-11.5178-.1249-20.1154l-5.1884.9053a65.6013,65.6013,0,0,1-12.5444.7872A94.8427,94.8427,0,0,1,97.72,298.563,34.9922,34.9922,0,0,1,82.5747,291.79a28.6192,28.6192,0,0,1-9.9434-13.9005l-2.2647-5.2022a56.4215,56.4215,0,0,0-7.1133-11.5283,29.208,29.208,0,0,0-8.8205-8.0868,22.5409,22.5409,0,0,1-2.3059-1.4194l-.2943-.2082a16.874,16.874,0,0,1-2.9375-2.7225,11.9845,11.9845,0,0,1-2.0323-3.1559c-.4474-1.0579-.0831-1.925,1.1236-2.6012a8.2787,8.2787,0,0,1,3.0321-.8346,20.3108,20.3108,0,0,1,5.4724.1094l2.5764.3853q4.5156.8949,11.1917,5.4207a36.5236,36.5236,0,0,1,10.96,11.7572A39.9159,39.9159,0,0,0,93.7629,273.932a26.6449,26.6449,0,0,0,14.8092,4.8519,64.87,64.87,0,0,0,12.8844-1.1236,45.2967,45.2967,0,0,0,10.1722-3.3885q2.034-15.1594,11.07-23.2888a154.1261,154.1261,0,0,1-23.1674-4.0786,91.3808,91.3808,0,0,1-21.2426-8.82,60.9037,60.9037,0,0,1-18.208-15.1317q-7.2156-9.0416-11.8543-23.7363-4.6351-14.712-4.6335-33.9084,0-27.3536,17.8577-46.5777-8.3756-20.5647,1.585-46.1026,6.5392-2.05,19.4392,3.0484,12.886,5.0829,18.87,8.6984c3.9988,2.41,7.1964,4.4566,9.6069,6.1109a163.1911,163.1911,0,0,1,86.812,0l8.5907-5.4346A121.4853,121.4853,0,0,1,247.15,75.108q11.97-4.51,18.3154-2.48,10.16,25.5483,1.8034,46.1164,17.86,19.2068,17.8544,46.5639,0,19.2015-4.6336,34.0193-4.63,14.811-11.9757,23.7328a63.1889,63.1889,0,0,1-18.3154,15.0381,92.0319,92.0319,0,0,1-21.2426,8.8057,154.13,154.13,0,0,1-23.1675,4.0786q11.7468,10.1808,11.7467,32.0946V330.779a8.993,8.993,0,0,0,2.83,6.7733c1.8832,1.8035,4.852,2.3445,8.9271,1.585q52.4493-17.4172,85.5531-62.7395,33.128-45.317,33.1246-102.0512Q347.95,127.1151,324.6816,87.2085Z"/>
    <path class="cls-1" d="M122.742,340.218a18.9068,18.9068,0,0,1-3.4552-.347l-.0982-.0252c-34.94-11.59-63.8531-32.7834-85.9343-62.9937C11.1881,246.6429,0,212.1587,0,174.357A171.3269,171.3269,0,0,1,23.39,86.8325,174.4147,174.4147,0,0,1,86.832,23.39,171.3588,171.3588,0,0,1,174.36,0a171.3318,171.3318,0,0,1,87.5138,23.39,174.4254,174.4254,0,0,1,63.4523,63.4421h0a171.5861,171.5861,0,0,1,23.39,87.5138c0,37.811-11.193,72.2942-33.2683,102.4918-22.0477,30.1976-50.9561,51.3967-85.9208,63.0077l-.0987.0252c-4.288.8-7.5114.2012-9.58-1.7795a9.7386,9.7386,0,0,1-3.06-7.3126V283.0777c0-14.3147-3.8653-24.9236-11.4889-31.5306l-1.2985-1.1254,1.7086-.1813a154.145,154.145,0,0,0,23.0546-4.0577,91.6842,91.6842,0,0,0,21.0714-8.7359,62.8092,62.8092,0,0,0,18.1018-14.8605c4.807-5.8271,8.79-13.7272,11.84-23.4812,3.0523-9.7555,4.5995-21.1258,4.5995-33.7966,0-17.9618-5.94-33.4569-17.6546-46.0557l-.3242-.3484.1794-.4413c5.4358-13.368,4.8726-28.5822-1.6732-45.2247-4.0392-1.1473-9.9217-.2838-17.4909,2.5678a121.3632,121.3632,0,0,0-20.6666,9.88l-8.8638,5.6074-.3192-.0894a162.45,162.45,0,0,0-86.4112,0l-.3358.0938-.2871-.1973c-2.5329-1.7378-5.7523-3.7861-9.57-6.0866a136.6458,136.6458,0,0,0-18.7588-8.6436C94.0163,73.1461,87.7606,72.094,83.5989,73.24c-6.4116,16.63-6.9019,31.8387-1.4563,45.2091l.1792.4408-.324.3484C70.2809,131.85,64.34,147.35,64.34,165.3085c0,12.6654,1.5472,23.9983,4.599,33.6838,3.03,9.6379,6.9754,17.5424,11.726,23.4953a60.407,60.407,0,0,0,17.9871,14.9446,91.01,91.01,0,0,0,21.0694,8.75,154.123,154.123,0,0,0,23.0566,4.0582l1.6648.1764-1.244,1.1206c-5.8616,5.28-9.5057,12.9628-10.83,22.8335l-.0539.4014-.3655.1735a46.2384,46.2384,0,0,1-10.3387,3.4449,65.85,65.85,0,0,1-13.038,1.14,27.5094,27.5094,0,0,1-15.2206-4.9752,40.87,40.87,0,0,1-12.7834-14.3872,35.9329,35.9329,0,0,0-10.7289-11.5054c-4.3478-2.9463-8.0217-4.7317-10.9174-5.3056l-2.5411-.38a19.5956,19.5956,0,0,0-5.2711-.1064,7.6212,7.6212,0,0,0-2.751.741c-1.1284.6317-1.0088,1.19-.8086,1.6625a11.2475,11.2475,0,0,0,1.9083,2.957,16.0314,16.0314,0,0,0,2.8108,2.6071l.2891.2051a21.678,21.678,0,0,0,2.2291,1.3713,30.059,30.059,0,0,1,9.0567,8.288,56.7062,56.7062,0,0,1,7.2077,11.6876l2.2858,5.2566a28.0247,28.0247,0,0,0,9.6875,13.5469,34.4322,34.4322,0,0,0,14.8269,6.6342,94.45,94.45,0,0,0,15.5928,1.573,65.3746,65.3746,0,0,0,12.3991-.775l6.07-1.0585v.8879c0,5.6871.0418,12.452.1249,20.1067q.0518,6.0523.0807,9.1117.0262,2.7852.0267,3.1048a9.6053,9.6053,0,0,1-3.1815,7.3359A8.8271,8.8271,0,0,1,122.742,340.218Zm-3.1315-1.8053c3.7807.6963,6.5866.2293,8.3414-1.3942a8.0654,8.0654,0,0,0,2.7014-6.24q0-.3186-.0263-3.0912-.0283-3.0615-.0811-9.1107c-.0787-7.264-.12-13.73-.1244-19.2335l-4.3143.7523a66.79,66.79,0,0,1-12.6844.7984,96.0073,96.0073,0,0,1-15.8367-1.5969,35.9042,35.9042,0,0,1-15.463-6.9136A29.4907,29.4907,0,0,1,71.9351,278.16l-2.2529-5.1749a56.0413,56.0413,0,0,0-7.0215-11.3723,28.6113,28.6113,0,0,0-8.5834-7.8846,23.2067,23.2067,0,0,1-2.3817-1.4661l-.2949-.209a17.7361,17.7361,0,0,1-3.0717-2.8447,12.7461,12.7461,0,0,1-2.1533-3.3512c-.3494-.8256-.6259-2.3831,1.4457-3.5436a8.911,8.911,0,0,1,3.3065-.9247,21.1653,21.1653,0,0,1,5.6734.1122l2.5761.3854c3.1276.6191,6.9851,2.4813,11.5,5.5408A37.4315,37.4315,0,0,1,81.8607,259.422,39.4245,39.4245,0,0,0,94.1757,273.31a26.0418,26.0418,0,0,0,14.3964,4.7273,64.3638,64.3638,0,0,0,12.7344-1.1085,44.9515,44.9515,0,0,0,9.6379-3.1606c1.3237-9.37,4.71-16.8329,10.0762-22.2187a152.7551,152.7551,0,0,1-21.68-3.9236,92.52,92.52,0,0,1-21.415-8.8895A61.8943,61.8943,0,0,1,79.499,223.42c-4.8674-6.0987-8.8988-14.166-11.9841-23.9793-3.0975-9.8309-4.6681-21.3149-4.6681-34.1324,0-18.1829,5.9661-33.9044,17.7358-46.737-5.4421-13.7194-4.8517-29.265,1.7577-46.2146l.13-.3339.3421-.1073c4.5558-1.4273,11.0763-.4238,19.9362,3.0663a137.9914,137.9914,0,0,1,18.98,8.753c3.701,2.2305,6.8466,4.2273,9.3575,5.9388a163.9633,163.9633,0,0,1,86.5589.0044l8.3108-5.2575a122.848,122.848,0,0,1,20.93-10.0111c8.1047-3.0538,14.4328-3.8915,18.8068-2.4924l.3358.1073.13.3276c6.7451,16.9616,7.41,32.5131,1.9784,46.2325,11.7673,12.8209,17.7324,28.5376,17.7324,46.7239,0,12.8219-1.5706,24.3424-4.6676,34.2422C278.0952,209.49,274.02,217.56,269.09,223.5359a64.2812,64.2812,0,0,1-18.5274,15.2152,93.204,93.204,0,0,1-21.4169,8.8754,152.7751,152.7751,0,0,1-21.6405,3.9187c7.1528,6.9467,10.7765,17.5439,10.7765,31.5325v47.7012a8.3,8.3,0,0,0,2.5994,6.2342c1.694,1.6212,4.4611,2.0906,8.2247,1.4,34.6412-11.5147,63.2866-32.5278,85.137-62.4552,21.8849-29.9366,32.9812-64.1234,32.9812-101.6107a170.1106,170.1106,0,0,0-23.1873-86.7621h0A172.9417,172.9417,0,0,0,261.1219,24.68,169.8613,169.8613,0,0,0,174.36,1.4928,169.888,169.888,0,0,0,87.5842,24.68,172.9318,172.9318,0,0,0,24.68,87.5847,169.8522,169.8522,0,0,0,1.4928,174.357c0,37.4786,11.0915,71.6663,32.9666,101.6146C56.3428,305.9107,84.9931,326.9194,119.6105,338.4127Z"/>
  </g>
</svg>
