<svg id="Layer_1" data-name="Layer 1" xmlns="http://www.w3.org/2000/svg" width="349.0992" height="349.0599" viewBox="0 0 349.0992 349.0599">
  <defs>
    <style>
      .cls-1 {
        fill: #fff;
      }
    </style>
  </defs>
  <path class="cls-1" d="M0,317.3859V31.9972A7.1535,7.1535,0,0,0,.2965,30.932,35.1413,35.1413,0,0,1,35.2156,0Q173.935,0,312.6542.013a55.7376,55.7376,0,0,1,5.7952.3109,34.7315,34.7315,0,0,1,30.6454,34.034q.0061,140.32-.0011,280.6405a29.0239,29.0239,0,0,1-.0824,3.2279,35.09,35.09,0,0,1-24.8257,29.5218c-1.7985.5258-3.6475.8788-5.4732,1.3118H30.3843a5.7216,5.7216,0,0,0-.8874-.2983A35.0176,35.0176,0,0,1,.8935,321.764C.5659,320.3114.2964,318.8456,0,317.3859Zm192.0483-20.7205v-2.2739q0-44.1918.0013-88.3837c0-.8615.0043-1.7236.034-2.5845.4519-13.0889,11.99-24.826,24.8685-25.3036a26.6678,26.6678,0,0,1,27.4946,26.5184q0,45,0,90v1.99h52.3284v-2.1936q0-48.4737.0147-96.9473a54.39,54.39,0,0,0-4.974-23.8341c-11.3565-23.7348-30.0124-37.1975-56.6117-37.1549-17.4558.028-31.2743,8.7532-41.9294,22.45-.3416.439-.6644.8926-.9959,1.3394l-.3284-.1184V139.81H139.7992V296.6654Zm-139.5341-.038h52.1067V139.8109H52.5142ZM110.0117,78.5638A31.3965,31.3965,0,1,0,78.6535,110,31.2742,31.2742,0,0,0,110.0117,78.5638Z"/>
</svg>
