<svg id="Layer_1" data-name="Layer 1" xmlns="http://www.w3.org/2000/svg" width="600" height="600" viewBox="0 0 600 600">
  <defs>
    <style>
      .cls-1 {
        fill: #fff;
      }
    </style>
  </defs>
  <path class="cls-1" d="M125.45,442.856V157.4673a7.1393,7.1393,0,0,0,.2965-1.0653A35.1413,35.1413,0,0,1,160.6661,125.47q138.7193-.0006,277.4385.0128a55.7651,55.7651,0,0,1,5.7952.3108,34.7315,34.7315,0,0,1,30.6454,34.0341q.0063,140.32-.001,280.6405a29.0463,29.0463,0,0,1-.0825,3.2278,35.0906,35.0906,0,0,1-24.8256,29.5219c-1.7985.5258-3.6476.8787-5.4733,1.3117H155.8348a5.7475,5.7475,0,0,0-.8875-.2983,35.0175,35.0175,0,0,1-28.6034-26.9976C126.0163,445.7814,125.7469,444.3157,125.45,442.856Zm192.0483-20.7206v-2.2738q0-44.1919.0014-88.3837c0-.8615.0042-1.7237.0339-2.5846.4519-13.0889,11.99-24.8259,24.8685-25.3035a26.6678,26.6678,0,0,1,27.4946,26.5184q0,45,0,89.9994v1.99h52.3284v-2.1936q0-48.4737.0148-96.9474a54.39,54.39,0,0,0-4.9741-23.834c-11.3565-23.7349-30.0124-37.1976-56.6117-37.1549-17.4558.0279-31.2743,8.7531-41.9294,22.45-.3416.439-.6644.8926-.9959,1.3394l-.3284-.1183V265.28H265.25V422.1354Zm-139.5341-.0379h52.1067V265.2809H177.9646Zm57.4975-218.0636A31.3965,31.3965,0,1,0,204.104,235.47,31.2741,31.2741,0,0,0,235.4621,204.0339Z"/>
</svg>
